<svg xmlns="http://www.w3.org/2000/svg" viewBox="0 0 256 179"><path d="M89.168 178.735c-23.27-2.945-33.61-29.547-24.295-62.513.274-.968.766-2.768 1.095-4 2.363-8.861 4.19-13.48 4.93-12.467.398.544.438.446.396-.972-.058-1.977-.867-2.462-7.001-4.197-3.551-1.004-3.714-.952-3.189 1.01.726 2.714.639 2.843-2.18 3.217-1.954.259-1.873.135-2.246 3.42-1.088 9.575-6.012 20.393-11.83 25.989-1.281 1.232-2.633 2.58-3.005 2.994-1.569 1.751-9.443 6.885-12.39 8.078-26.72 10.815-41.886-34.025-16.31-48.224 3.696-2.053 4.532-2.48 6.265-3.205a166 166 0 0 0 3.2-1.38c.704-.316 1.856-.749 2.56-.961.704-.213 1.568-.514 1.92-.67 1.246-.55 5.152-1.543 7.52-1.91 1.32-.206 2.724-.437 3.12-.514.809-.158.972-1.011.246-1.29-.26-.1-.777-.673-1.148-1.274-.371-.6-1.167-1.702-1.769-2.448-8.601-10.665-12.829-24.124-11.834-37.676.433-5.89 1.7-14.747 3.384-23.644a489 489 0 0 0 1.294-7.076c1.106-6.594 1.833-7.853 2.915-5.048.29.752.909 2.304 1.375 3.448.767 1.882 1.232 2.946 2.592 5.92 1.974 4.318 4.226 9.951 4.798 12 .123.44.475 1.376.784 2.08.308.704.951 2.288 1.429 3.52s1.504 3.846 2.281 5.808 1.413 3.664 1.413 3.78c0 .117.343.964.763 1.882s.989 2.312 1.264 3.099c.276.787 1.025 2.87 1.665 4.63 1.693 4.659 3.94 13.541 4.45 17.6.896 7.109 1.129 7.268 15.826 10.866 4.263 1.044 3.994 1.092 4.835-.865a37 37 0 0 1 1.72-3.379c.548-.934 1.2-2.086 1.447-2.56.248-.473 1.076-1.678 1.84-2.677.765-.998 1.396-1.934 1.404-2.08.008-.145.844-1.272 1.859-2.504 9.724-11.807 24.844-12.016 32.993-.455 12.448 17.658 11.111 35.761-2.866 38.819-4.507.986-19.572.55-21.466-.62-.159-.098-1.19-.32-2.292-.491-1.101-.172-3.566-.694-5.477-1.16-4.015-.98-4.027-.974-5.349 2.54-.88 2.341-.73 2.832 1.64 5.367 1.07 1.144 2.98 3.304 4.243 4.8 1.265 1.496 2.389 2.792 2.499 2.88s2.18 2.032 4.599 4.32 5.066 4.635 5.881 5.216 2.274 1.821 3.242 2.755c.968.935 3.128 2.683 4.8 3.886a518 518 0 0 1 5.644 4.124 166 166 0 0 0 4.16 3.003c.856.586 2.996 2.08 4.756 3.32 6.634 4.674 8.28 5.09 11.523 2.915 1.23-.825 2.525-1.656 2.877-1.846 3.152-1.703 13.161-8.78 19.129-13.526 6.36-5.057 7.797-6.252 9.841-8.188a162 162 0 0 1 3.04-2.816c4.91-4.328 12.31-13.59 12.31-15.407 0-3.8-2.165-5.604-5.683-4.737-1.538.38-4.021.981-5.517 1.337s-3.224.77-3.84.92c-11.723 2.847-21.923 2.158-26.762-1.808-7.486-6.134-7.083-21.992.824-32.428a34 34 0 0 0 1.448-2.08c5.354-8.577 15.943-12.212 24.671-8.47 3.385 1.45 11.019 7.97 11.019 9.409 0 .19.3.534.667.763.375.234.59.617.491.873-.096.252-.048.423.107.381.474-.128 2.67 3.262 4.447 6.864 1.83 3.711 2.362 4.135 3.9 3.1.447-.301 3.039-1.13 5.76-1.843 11.635-3.049 11.51-2.928 13.105-12.787.9-5.561 5.676-20.933 10.305-33.17 1.616-4.27 2.72-7.24 3.633-9.76a74 74 0 0 1 1.787-4.422c.505-1.113.918-2.153.918-2.312s.275-.905.611-1.658c.337-.752 1.346-3.312 2.244-5.688 3.185-8.43 3.737-8.522 4.803-.8.146 1.056.57 3.432.943 5.28a324 324 0 0 1 1.021 5.28c.19 1.056.542 2.856.784 4 1.06 5.012 1.814 9.505 1.953 11.629.083 1.26.287 3.515.453 5.01 1.608 14.433-3.07 28.99-12.794 39.814-2.49 2.77-2.581 3.103-.953 3.444 6.444 1.353 8.91 2.073 16.295 4.756 1.496.544 3.188 1.148 3.76 1.342s1.04.456 1.04.584.38.327.843.443c7.309 1.835 14.529 12.938 15.341 23.594.112 1.465.237 2.942.278 3.283s-.107 1.492-.33 2.56a49 49 0 0 0-.591 3.54c-1.39 11.96-10.771 20.207-21.301 18.727-4.163-.585-11.926-3.649-14.517-5.729a78 78 0 0 0-3.262-2.437c-1.002-.704-2.343-1.923-2.981-2.71a64 64 0 0 0-2.524-2.88c-.75-.797-2.027-2.458-2.838-3.69s-1.718-2.6-2.016-3.04c-1.518-2.238-3.395-7.061-4.858-12.48-.71-2.637-.744-2.792-1.198-5.669-.402-2.544-.481-2.651-1.959-2.651-2.255 0-2.3-.068-2.057-3.08.162-1.992.12-2.68-.166-2.68-.55 0-3.25.854-6.584 2.084-1.584.584-3.204 1.156-3.6 1.27s-.778.523-.851.907c-.513 2.708-.754 5.005-.614 5.854.404 2.445-2.153 11.719-4.572 16.583-2.56 5.148-5.4 9.329-9.153 13.476l-3.62 4c-.71.784-2.941 2.988-4.96 4.898a752 752 0 0 0-6.87 6.595c-1.76 1.717-4.208 3.882-5.44 4.811-4.851 3.657-4.821 3.497-.8 4.28 2.05.398 2.854.705 3.266 1.245.477.627.63.665 1.216.304.522-.321 1.219-.34 3.134-.087 7.337.972 16.226-.128 18.944-2.345.264-.215.893-.568 1.398-.784 3.058-1.307 7.211-5.778 9.92-10.68 4.719-8.54 4.641-23.831-.188-37.051-1.328-3.637-1.62-11.564-.318-8.64 2.015 4.526 4.51 11.74 5.2 15.04.128.616.597 2.848 1.042 4.96 1.203 5.714 1.677 9.036 2.402 16.8.722 7.74-.853 20.882-2.82 23.52-.13.176-.345.68-.475 1.12-2.014 6.79-9.924 14.592-17.281 17.046-6.051 2.019-18.022 2.21-21.054.336-.161-.1-.818-.251-1.46-.337-.641-.086-1.526-.336-1.966-.558-.44-.22-1.376-.584-2.08-.807s-2.432-.943-3.84-1.598c-9.985-4.65-11.02-5.122-11.235-5.122-.106 0-.818-.422-1.583-.938-1.38-.931-4.165-.608-4.919.57-.427.667-11.654 5.814-16.183 7.42-7.63 2.704-13.8 3.506-20.48 2.66m9.6-19.786c4.823-.578 5.337-.678 9.44-1.84 4.007-1.136 3.844-1.023 2.441-1.69-.622-.294-1.525-.901-2.007-1.348-.482-.446-2.036-1.755-3.455-2.908a97 97 0 0 1-4.82-4.239 1284 1284 0 0 0-5.421-5.142c-4.97-4.687-8.488-8.356-10.84-11.306-.847-1.064-2.155-2.465-2.906-3.114-.751-.648-1.919-2.016-2.594-3.04a452 452 0 0 0-1.809-2.721c-1.515-2.248-4.26-10.945-4.63-14.672-.376-3.788-.731-3.372-2.472 2.893-3.474 12.499-3.684 25.336-.525 32.16.163.352.656 1.473 1.095 2.492 4.811 11.158 14.618 16.14 28.503 14.475M21.47 120.817c1.673-.47 3.624-1.41 6.755-3.256 7.342-4.327 17.28-16.655 12.232-15.173-.666.196-2.28.514-3.589.707-2.409.357-4.572.93-6.901 1.828-.704.272-2.169.83-3.255 1.242-14.415 5.46-21.48 13.893-12.606 15.045.604.079 1.18.225 1.28.325.28.283 4.143-.173 6.084-.718m224.494-2.484c1.116-.731.932-1.563-.969-4.377-3.205-4.745-7.202-7.22-16.308-10.1a56 56 0 0 1-3.04-1.075c-.792-.313-1.944-.67-2.56-.791a193 193 0 0 1-3.68-.801c-4.254-.964-4.57-.991-5.113-.449-.72.72.313 2.444 3.513 5.865 2.172 2.322 3.173 3.231 6.08 5.522 4.08 3.216 9.416 5.87 13.106 6.52.525.093 1.03.248 1.124.346.427.445 7.005-.108 7.847-.66M107.303 83.708c.224-.138.997-.263 1.719-.276 1.605-.03 4.33-1.377 4.835-2.39 1.17-2.344-3.193-5.796-7.298-5.775-4.782.025-15.262 6.252-13.495 8.019.612.612 13.321.99 14.239.422m52.4-.843c3.482-.466 3.698-.712 2.041-2.322-6.74-6.547-18.391-7.93-20.876-2.478-2.023 4.441 6.077 6.506 18.835 4.8M48.577 71.249c.787-2.051-5.244-23.347-8.697-30.707-1.093-2.33-2.442-6.144-3.51-9.92-1.309-4.631-2.481-2.576-3.194 5.6-.07.792-.347 2.88-.617 4.64s-.562 3.848-.648 4.64-.377 2.808-.65 4.48c-1.196 7.364-.789 12.16 1.034 12.16.13 0 1.028.656 1.995 1.459.967.802 3.774 2.64 6.238 4.083 7.56 4.43 7.694 4.49 8.05 3.565m161.482-2.27c5.343-2.699 12.683-7.665 15.058-10.19 1.3-1.382.941-5.427-1.687-19.047-2.334-12.095-2.654-13.44-3.196-13.44-.247 0-2.585 4.83-2.588 5.347 0 .14-.357 1.117-.792 2.173s-.794 2.263-.798 2.682-.284 1.211-.62 1.76c-.53.863-3.313 8.745-3.404 9.638-.037.368-.663 2.542-1.336 4.64-1.363 4.251-3.598 14.22-3.604 16.08-.005 1.497.572 1.566 2.967.357"/></svg>