<svg xmlns="http://www.w3.org/2000/svg" viewBox="0 0 961 954"><path d="M528.607 953.45c-.334-.87-.628-3.907-.653-6.75-.05-5.628-7.669-32.519-15.206-53.668-4.766-13.373-12.16-29-13.72-29-.523 0-1.755.864-2.739 1.919-3.06 3.283-6.32 3.435-11.8.551-5.672-2.986-12.933-9.606-15.138-13.803-1.893-3.604-1.113-5.954 5.802-17.476 5.56-9.265 6.105-9.878 9.597-10.808 7.404-1.973 19.269 8.015 27.893 23.48 9.867 17.694 19.361 43.561 21.368 58.215.634 4.63 1.271 8.538 1.417 8.683.396.396 6.572-32.091 6.572-34.572 0-2.281 10.595-44.636 11.646-46.554 3.395-6.198 10.567-15.501 13.698-17.77 4.232-3.065 9.29-4.425 12.997-3.494 3.482.874 10.187 7.14 13.634 12.742 3.423 5.565 3.988 12.44 1.576 19.203-3.335 9.35-7.327 9.938-14.837 2.184-5.817-6.005-9.896-7.167-13.025-3.708-2.52 2.784-10.112 23.8-11.635 32.208-.448 2.475-1.736 8.775-2.86 14-1.126 5.225-2.776 13.55-3.667 18.5-4.779 26.55-8.96 41.006-13.222 45.716-2.011 2.222-6.874 2.35-7.698.202m-152.208-7.582c-.396-.64-1.061-14.028-1.479-29.75-.916-34.497-3.034-49.547-14.95-106.218-6.004-28.555-7.666-43.56-6.152-55.547 1.4-11.088 3.906-17.34 10.046-25.06 3.47-4.366 5.874-6.073 14.401-10.232 5.63-2.745 11.707-5.283 13.506-5.64l3.271-.647-3.803-2.797c-8.32-6.119-12.132-5.293-19.815 4.293-6.148 7.671-7.237 8.722-9.057 8.747-1.92.026-2.145-3.294-.821-12.066 3.103-20.559 6.296-28.934 13.582-35.621 2.904-2.666 8.945-5.298 12.158-5.298 4.85 0 12.482 3.122 20.714 8.473 8.174 5.314 22.794 17.262 22.933 18.742.037.394 1.417 2.844 3.067 5.446 1.77 2.792 3 6.082 3 8.028 0 4.092-6.567 20.747-9.405 23.852-2.114 2.313-17.778 7.698-31.83 10.941-6.304 1.455-21.547 7.712-22.732 9.33-.293.401-1.663 1.223-3.044 1.828-5.073 2.221-5.54 5.117-2.5 15.52 4.136 14.153 10.474 40.018 10.498 42.84.011 1.375 1.114 8.125 2.45 15 4.28 22.017 5.91 39.677 5.957 64.5.036 19.594-.287 24.81-2.187 35.229-1.227 6.725-2.747 13.363-3.38 14.75-1.217 2.672-3.234 3.29-4.428 1.357m-119.253-41.586c-5.358-5.102-6.662-10.009-6.574-24.75.077-12.873.716-16.073 7.392-37 6.748-21.154 20.346-53.259 26.364-62.243 2.173-3.245 5.672-4.433 5.672-1.926 0 .731-1.133 3.544-2.518 6.25-1.386 2.705-3.598 7.844-4.916 11.419s-3.57 9.121-5.002 12.324c-1.432 3.204-5.051 13.132-8.041 22.063-5.916 17.671-8.068 30.053-7.15 41.139.591 7.147 1.296 8.901 4.95 12.318 4.178 3.908 8.964 1.215 15.274-8.594 1.858-2.887 4.121-5.25 5.03-5.25 2.682 0 1.146 10.045-3.179 20.793-3 7.457-4.628 10.075-8.234 13.25-4.033 3.55-5.043 3.957-9.813 3.957-4.777 0-5.717-.38-9.255-3.75m173.088 2.206c-3.503-1.472-4.241-3.1-4.212-9.288.024-5.133 2.358-11.106 6.073-15.539 7.172-8.56 10.348-11.629 12.032-11.629 2.325 0 2.436 2.294.2 4.128-2.17 1.779-10.327 12.823-10.327 13.982 0 .49 1.565.89 3.477.89 6.837 0 8.51 8.297 2.994 14.852-2.906 3.453-6.215 4.295-10.237 2.604M630 905.206c0-.454 1.146-1.902 2.547-3.218 3.332-3.13 9.913-11.687 11.829-15.38 1.07-2.063 1.226-3.45.533-4.746-1.05-1.962-4.392-2.475-5.409-.83-.34.55-1.266 1-2.059 1-2.371 0-1.813-7.022.82-10.312 3.115-3.893 9.606-4.82 12.623-1.804 4.48 4.48 2.242 15.036-5.193 24.481-5.412 6.877-15.691 13.958-15.691 10.81m80.662-15.164c-1.7-2.021-2.741-4.796-3.213-8.57-1.066-8.534.454-24.875 3.2-34.408 3.038-10.543 11.276-27.532 13.351-27.532 1.932 0 1.91.118-3.486 19-5.85 20.469-6.6 27.623-3.562 33.902 1.373 2.835 2.89 4.598 3.957 4.598 2.31 0 7.42-4.716 9.482-8.75 2.214-4.334 3.609-4.105 3.609.593 0 7.088-6.049 21.042-10.048 23.183-1.001.536-3.835.974-6.297.974-3.744 0-4.89-.49-6.993-2.99M171 843.892c0-1.013 7.821-10.582 13.572-16.604 2.943-3.082 8.428-13.574 8.428-16.123 0-1.148-1.14-2.834-2.535-3.748-2.355-1.543-2.832-1.544-6.712-.02-3.685 1.448-4.35 1.467-5.655.162s-1.275-2.123.25-6.961c2.42-7.677 7.197-11.566 14.206-11.566 4.152 0 5.535.466 7.459 2.514 5.39 5.737 2.971 21.71-5.07 33.486-7.659 11.213-23.943 24.041-23.943 18.86m287-51.18c0-.726 1.501-3.088 3.337-5.25 9.22-10.861 11.4-15.743 8.21-18.391-1.154-.958-2.077-.839-4.47.575-3.702 2.186-4.511 1.514-3.657-3.038 1.946-10.376 14.967-14.076 17.482-4.968 2.195 7.95-4.264 20.338-15.096 28.95-4.692 3.73-5.806 4.137-5.806 2.122m206.5-2.355c-7.7-.777-14.863-1.415-15.917-1.418-1.843-.006-14.053-3.047-25.583-6.371-3.025-.873-7.67-2.02-10.324-2.55s-6.253-1.585-8-2.346c-10.293-4.485-15.84-6.691-21.18-8.423-3.301-1.07-9.601-3.742-14-5.937-4.397-2.194-9.154-4.269-10.57-4.61-1.414-.34-4.252-1.76-6.305-3.152s-6.52-3.975-9.927-5.737c-3.407-1.761-6.81-3.804-7.563-4.54-.752-.734-5.477-4.078-10.5-7.43s-10.977-7.606-13.234-9.453-4.342-3.358-4.634-3.358c-1.728 0-26.73-25.003-26.75-26.75-.007-.687-.474-1.25-1.038-1.25-.563 0-1.457-1.137-1.985-2.526s-1.642-2.787-2.475-3.107-1.515-1.222-1.515-2.005c0-.784-.672-1.683-1.494-1.998-.822-.316-1.246-.976-.941-1.469.304-.492.076-.895-.506-.895s-1.059-.489-1.059-1.087c0-1.22-10.082-16.227-11.25-16.746-.412-.184-.75-1.196-.75-2.25s-.337-1.921-.75-1.926c-2.201-.026-17.873-34.932-21.185-47.185-1.086-4.018-2.852-10.006-3.926-13.306-3.186-9.799-6.139-21.347-6.139-24.007 0-1.366-1.32-7.999-2.932-14.739-1.613-6.74-3.872-16.7-5.022-22.132s-2.436-10.496-2.858-11.25c-.437-.78-1.317 3.483-2.041 9.878-.7 6.187-2.197 14.75-3.327 19.028-2.168 8.21-8.962 20.596-15.752 28.722-2.069 2.475-4.505 5.94-5.415 7.7-.909 1.76-2.24 3.56-2.958 4s-2.63 2.6-4.25 4.8-3.957 4.82-5.195 5.823c-1.237 1.002-2.25 2.287-2.25 2.856 0 .568-1.125 1.918-2.5 3-1.375 1.081-2.5 2.562-2.5 3.29 0 2.164-40.37 44.435-42.5 44.5-.55.017-5.707 4.536-11.46 10.04-5.754 5.506-12.193 11.211-14.31 12.678s-4.288 3.488-4.825 4.49-1.446 1.823-2.022 1.823c-.994 0-7.77 5.192-12.4 9.5-1.182 1.1-6.54 5.15-11.91 9a2289 2289 0 0 0-15.554 11.25c-3.186 2.338-6.114 4.25-6.506 4.25-.391 0-3.93 2.046-7.862 4.547-16.862 10.723-38.743 22.26-51.651 27.235-24.223 9.335-31.499 10.972-52.964 11.922-20.184.893-34.42-2.395-42.348-9.78-1.136-1.058-2.427-1.924-2.869-1.924-1.421 0-5.684-4.195-8.541-8.406-1.528-2.252-3.41-4.588-4.181-5.193-1.417-1.109-2.261-2.61-8.096-14.401-8.695-17.568-10.63-30.864-9.537-65.5.68-21.505 2.96-41.034 6.593-56.454 1.108-4.7 2.714-11.696 3.57-15.546.857-3.85 3.738-13.75 6.403-22s5.37-17.025 6.01-19.5 2.468-7.294 4.062-10.708S88 534.647 88 534.074s.378-1.042.84-1.042 1.441-1.822 2.176-4.05c1.61-4.88 4.915-8.95 7.266-8.95 1.36 0 1.718.904 1.718 4.34 0 4.41-2.819 19.064-5.417 28.16-5.292 18.532-6.732 24.11-8.516 33-1.104 5.5-2.905 13.954-4.002 18.786-5.402 23.804-6.887 47.303-3.678 58.214 2.4 8.161 7.922 18.105 12.95 23.318 2.29 2.374 7.42 6.356 11.402 8.847 6.562 4.105 8.265 4.68 18.19 6.133 9.475 1.389 12.541 1.433 22.76.331 15.356-1.655 20.963-2.918 29.811-6.717 1.65-.708 6.6-2.502 11-3.986 4.4-1.483 10.426-3.986 13.39-5.562 2.966-1.575 6.003-2.864 6.75-2.864.748 0 1.36-.401 1.36-.892 0-.49 1.137-1.177 2.527-1.525 1.39-.35 4.702-1.973 7.36-3.609s5.31-2.974 5.89-2.974 1.206-.36 1.39-.8 3.258-2.43 6.833-4.423 7.494-4.558 8.708-5.7 2.677-2.077 3.25-2.077 1.042-.36 1.042-.8c0-.439 1.575-1.368 3.5-2.064s3.5-1.686 3.5-2.2.675-.936 1.5-.936 1.5-.45 1.5-1 .69-1 1.531-1c.843 0 1.79-.675 2.107-1.5s1.203-1.5 1.969-1.5 1.393-.45 1.393-1 .635-1 1.41-1c.776 0 3.688-1.8 6.47-4 2.784-2.2 5.412-4.012 5.84-4.027.43-.015 2.355-1.38 4.28-3.033s6.2-5.096 9.5-7.65 7.125-5.686 8.5-6.96 3.473-3.108 4.663-4.074c11.25-9.132 17.283-14.265 19.992-17.006 1.766-1.787 3.578-3.257 4.028-3.265s3.4-2.413 6.557-5.343 5.897-5.172 6.087-4.982 1.909-1.343 3.82-3.407 5.358-5.312 7.663-7.218c2.304-1.906 4.19-3.837 4.19-4.292 0-.894 1.693-3.116 3.841-5.04 2.145-1.923 11.512-11.934 16.409-17.539 1.512-1.73 2.75-3.6 2.75-4.155s.374-1.009.83-1.009c.457 0 2.275-2.01 4.039-4.467s3.753-5.044 4.42-5.75c2.32-2.457 8.711-12.761 8.711-14.045 0-.711.61-2.18 1.355-3.265.746-1.085 2.25-4.584 3.344-7.776 1.85-5.4 1.894-6.372.625-14-3.851-23.146-12.384-57.745-20.763-84.197-2.44-7.7-5.548-17.6-6.908-22-2.336-7.557-8.093-24.636-9.776-29-3.583-9.288-5.86-15.727-6.985-19.75-.73-2.612-1.631-4.75-2-4.75-.569 0-1.299-3.107-2.057-8.75-.093-.687-.591-1.25-1.109-1.25-.517 0-.681-.675-.364-1.5.316-.825.14-1.5-.393-1.5s-.969-.757-.969-1.681c0-1.712-1.5-5.799-11.41-31.078-3.075-7.842-5.59-14.854-5.59-15.582s-1.996-6.154-4.435-12.056c-2.439-5.903-4.738-12.114-5.109-13.803s-1.75-5.212-3.065-7.83-2.391-5.077-2.391-5.464c0-.749-2.555-6.844-4.084-9.742-2.541-4.818.78-30.018 5.997-45.506 1.11-3.297 2.508-8.173 3.104-10.835 1.234-5.506 2.498-7.423 4.895-7.423 2.023 0 10.088 6.845 10.088 8.562 0 .675 1.35 2.672 3 4.438s3 3.614 3 4.106.42.894.933.894 1.243.978 1.622 2.173c.38 1.195 1.108 2.658 1.62 3.25 3.483 4.036 25.406 46.23 27.317 52.577.414 1.375 1.097 2.95 1.518 3.5.42.55 2.007 4.15 3.526 8s4.224 10.15 6.012 14 3.735 8.8 4.329 11 2.714 7.825 4.714 12.5 4.473 11.373 5.496 14.884 3.86 12.736 6.304 20.5c4.703 14.944 10.125 37.564 13.572 56.616 4.389 24.264 9.331 49.74 10.741 55.364.808 3.225 1.248 6.712.977 7.75-.272 1.037-.039 1.886.518 1.886.577 0 .847 1.718.63 4-.21 2.2-.094 4 .257 4s.936 2.588 1.3 5.75c.736 6.404 7.584 42.8 10.678 56.75 3.118 14.056 12.213 43.626 16.055 52.195 1.035 2.307 1.881 4.85 1.881 5.651 0 2.024 15.274 32.4 18.367 36.527 1.39 1.856 2.82 4.699 3.175 6.318.356 1.62 1.28 3.187 2.052 3.484.773.296 1.406 1.166 1.406 1.932s.45 1.393 1 1.393 1 .69 1 1.531c0 .843.672 1.79 1.494 2.105.822.316 1.325.864 1.118 1.219s1.258 2.73 3.255 5.28c9.483 12.099 13.523 16.865 14.296 16.865.463 0 2.46 1.79 4.436 3.978 1.977 2.188 5.238 4.98 7.248 6.204 2.009 1.225 4.21 2.99 4.889 3.921.68.932 5.075 4.223 9.768 7.314 4.692 3.09 9.412 6.5 10.488 7.575 1.077 1.077 3.206 2.265 4.733 2.64 1.526.377 3.8 1.348 5.052 2.16 1.253.81 4.965 2.745 8.25 4.298l5.973 2.825.002-7.207c.002-7.24 2.412-32.036 3.568-36.708 3.653-14.77 12.131-34.626 16.437-38.5 1.222-1.1 2.587-2.952 3.032-4.116 1.293-3.379 18.894-17.1 22.933-17.879 1.003-.193 3.782-1.588 6.176-3.1s8.627-4.718 13.852-7.124 11.75-5.447 14.5-6.758a923 923 0 0 1 11.5-5.35c3.575-1.63 9.019-4.136 12.097-5.569s6.155-2.604 6.838-2.604 4.014-1.277 7.403-2.837c5.406-2.49 16.996-7.165 26.162-10.554 2.236-.826-29.151-1.236-123.177-1.609l-126.177-.5-2.823-2.102c-2.448-1.823-2.863-2.876-3.128-7.937-.52-9.912 2.914-28.142 9.032-47.961 1.73-5.604 9.957-21.078 13.128-24.691 1.455-1.658 2.65-3.306 2.658-3.662.007-.356 1.806-2.579 4-4.94s3.987-4.577 3.987-4.922c0-.346 1.607-2.24 3.572-4.207 1.964-1.968 9.644-9.765 17.066-17.328s13.816-13.75 14.209-13.75 2.216-1.594 4.053-3.541c4.127-4.375 31.07-26.19 35.882-29.053 1.936-1.152 4.474-3.012 5.638-4.133 1.165-1.12 8.41-6.113 16.099-11.094 7.69-4.981 15.173-9.981 16.63-11.11 1.458-1.13 3.483-2.362 4.5-2.737 2.171-.801 14.62-8.434 15.351-9.412.275-.368 2.863-1.68 5.75-2.918 2.888-1.236 5.25-2.542 5.25-2.902 0-.359 4.3-2.891 9.555-5.626s10.367-5.72 11.36-6.632c2.336-2.147 9.586-5.842 11.462-5.842.801 0 1.606-.38 1.79-.845.387-.98 3.184-2.547 14.641-8.204 4.57-2.256 8.155-4.405 7.968-4.776s-.995-2.025-1.796-3.675-2.024-3.595-2.718-4.321c-.694-.727-1.262-1.745-1.262-2.263s-2.698-6.448-5.995-13.178c-8.136-16.608-9.504-22.154-9.43-38.238.048-10.34.533-14.739 2.375-21.5 1.273-4.675 2.706-8.927 3.183-9.45s.867-1.673.867-2.556c0-2.517 11.41-17 17.427-22.122 7.692-6.547 18.36-9.971 33.073-10.617 10.258-.45 11.742-.263 22 2.78 6.42 1.906 14.644 5.284 19.752 8.115 4.814 2.668 9.186 4.85 9.716 4.85s2.44 1.288 4.247 2.863 6.66 5.01 10.785 7.635 7.65 5.16 7.833 5.637c.184.476.971.865 1.75.865.78 0 1.417.399 1.417.886s1.575 1.634 3.5 2.547 3.5 2.09 3.5 2.614.675.953 1.5.953 1.5.374 1.5.83c0 .457 2.138 2.344 4.75 4.194 9.903 7.01 22.739 20.92 27.656 29.968 2.965 5.458 2.457 16.185-1.34 28.258a6889 6889 0 0 0-6.093 19.5c-3.61 11.626-6.917 18.564-8.973 18.826-3.189.407-42.904 12.635-71.757 22.094-8.942 2.932-16.929 5.33-17.75 5.33-1.225 0-1.497 1.838-1.517 10.25-.038 15.953-2.014 21.633-7.552 21.718-3.553.055-9.93-8.956-12.464-17.612-1.13-3.863-1.396-4.091-3.905-3.372-1.48.425-3.561 1.23-4.623 1.79-4.517 2.377-15.105 7.14-17.167 7.721-1.229.347-6.262 2.852-11.184 5.568-4.923 2.715-9.332 4.937-9.798 4.937-.942 0-14.206 6.915-15.783 8.228-.55.458-3.358 2.056-6.24 3.552-7.384 3.832-23.661 13.354-24.26 14.191-.275.385-3.875 2.658-8 5.05-8.826 5.12-21.677 13.634-24.46 16.208-1.08.997-3.667 2.565-5.75 3.484-2.085.92-3.79 2.035-3.79 2.48s-.69.807-1.531.807c-.843 0-1.79.675-2.107 1.5s-1.203 1.5-1.969 1.5-1.393.525-1.393 1.167c0 .641-.253.914-.562.605s-1.724.516-3.146 1.833-3.108 2.395-3.748 2.395-3.487 1.913-6.327 4.25c-2.84 2.338-8.776 7.152-13.19 10.698-4.415 3.547-8.027 6.81-8.027 7.25s-.407.802-.904.802-3.626 2.813-6.953 6.25l-6.05 6.25 6.703.67c18.898 1.887 94.2 2.824 147.704 1.839 100.283-1.848 147.278-2.957 189.5-4.472 22.825-.82 51.795-1.798 64.377-2.175l22.876-.684-.417 6.411c-.23 3.526-1.233 7.986-2.229 9.911s-3.504 8.225-5.572 14-4.66 12.525-5.76 15a335 335 0 0 0-3.814 9c-.997 2.475-2.524 5.278-3.394 6.23-1.987 2.173-26.83 10.962-59.567 21.074-3.85 1.19-7.276 2.548-7.614 3.019-.338.47-1.688.717-3 .547s-2.949.042-3.636.47-1.25.567-1.25.308-3.038.686-6.75 2.098-10.125 3.669-14.25 5.014-14.384 4.875-22.798 7.843-15.945 5.397-16.736 5.397c-1.184 0-17.266 5.687-24.966 8.829-1.9.775-17.008 6.043-30 10.46-3.3 1.123-11.85 4.193-19 6.824-7.15 2.63-17.05 6.214-22 7.963-4.95 1.75-9.675 3.421-10.5 3.716-1.84.657-1.297.486-8.344 2.628-5.945 1.807-14.34 5.28-20.656 8.542-1.925.995-4.625 2.109-6 2.476-7.454 1.991-55 23.9-55 25.343 0 .402-1.424 1.361-3.164 2.131s-5.645 3.747-8.676 6.614l-5.512 5.212 2.28 3.881c1.253 2.135 2.907 4.24 3.675 4.68.769.44 1.397 1.295 1.397 1.9 0 .604 1.462 2.516 3.25 4.247 4.593 4.45 19.914 15.554 21.46 15.554.71 0 1.29.45 1.29 1s.459 1 1.02 1 2.923 1.202 5.25 2.671c2.326 1.47 11.205 6.149 19.73 10.399 14.07 7.014 20.883 10.291 41.102 19.772 7.921 3.714 9.004 4.888 9.61 10.409.688 6.282-4.528 48.766-6.329 51.544-2.982 4.599-6.458 4.893-29.883 2.53m68-507.57c3.85-1.126 11.725-3.813 17.5-5.97s12.525-4.628 15-5.492c11.42-3.99 11.943-4.323 10.773-6.892-.592-1.3-1.908-2.626-2.925-2.95-1.016-.322-1.848-1.218-1.848-1.99 0-1.416-15.609-9.461-18.357-9.461-.812 0-1.626-.378-1.81-.84-.421-1.062-27.194-10.611-35.779-12.761-7.022-1.76-14.465-1.428-16.603.74-1.124 1.14-.865 2.384 1.603 7.671 1.62 3.47 2.946 6.511 2.946 6.757 0 .477 13.723 28.382 15.83 32.192 1.396 2.522 1.694 2.5 13.67-1.004m41.329 489.848c-10.216-3.606-15.748-8.168-20.579-16.972-1.867-3.403-2.248-5.633-2.238-13.116.007-4.958.63-11.338 1.386-14.177 1.447-5.436 9.048-21.262 11.602-24.158.825-.935 3.3-3.946 5.5-6.69s5.238-6.042 6.75-7.329c1.513-1.286 2.75-2.727 2.75-3.202 0-1.023 12.088-14.01 23.928-25.707 7.273-7.185 8.232-8.518 7-9.729-2.67-2.625-16.078-5.659-27.544-6.233-10.3-.516-11.75-.35-19.768 2.259-11.597 3.774-12.175 3.108-6.787-7.818 9.108-18.471 13.501-21.464 32.862-22.386 15.762-.751 27.777.67 34.833 4.123 18.297 8.952 12.957 27.461-16.885 58.532a11967 11967 0 0 1-21.225 22c-20.13 20.817-23.764 28.283-17.664 36.286 1.513 1.984 3.875 4.085 5.25 4.67 17.021 7.226 59.457 4.385 95.5-6.394 10.238-3.062 13.753-3.642 15.507-2.557 1.765 1.09.246 2.918-9.054 10.886-11.34 9.715-13.908 11.409-27.453 18.107-21.101 10.434-57.776 15.216-73.671 9.605M680 698.706c0-.729 1.172-2.416 2.604-3.75C691.188 686.963 704 668.7 704 664.454c0-.757-1.128-2.115-2.507-3.019-2.478-1.623-6-1.298-11.743 1.085-1.378.572-1.749.225-1.744-1.631.011-4.98 2.344-10.442 6.036-14.134 3.714-3.714 3.999-3.813 10.089-3.522 5.964.285 6.363.465 8.276 3.748 4.764 8.176.535 23.294-9.757 34.882-2.384 2.685-4.968 5.738-5.742 6.786-.775 1.048-2.354 2.576-3.511 3.394-1.157.82-4.037 2.952-6.4 4.739-4.547 3.439-6.997 4.113-6.997 1.924m216.756-10.118c-4.325-2.256-7.61-6.607-9.34-12.373-2.327-7.75-2.065-22.799.588-33.798 1.178-4.887 2.306-9.657 2.505-10.6 2.36-11.168 17.235-49.488 23.284-59.982l5.616-9.75c1.6-2.78 3.565-5.053 4.367-5.053 1.94 0 1.325 2.458-3.26 13-18.936 43.55-26.25 76.734-20.137 91.364 3.844 9.2 13.007 5.55 19.11-7.614.956-2.062 2.42-3.75 3.254-3.75 1.246 0 1.393.917.829 5.17-1.65 12.437-5.731 22.522-11.717 28.955-5.605 6.022-9.729 7.233-15.1 4.431m-740.207-33.806c-.213-.687-.68-3.725-1.035-6.75-.727-6.177-12.026-32.876-14.279-33.74-.753-.29-1.88-.016-2.502.607-3.056 3.056-11.065-.605-15.034-6.873-2.278-3.598-1.472-6.806 3.577-14.242 2.86-4.211 3.638-4.748 6.884-4.75 2.766-.001 4.905.982 8.75 4.021 2.8 2.213 5.09 4.378 5.09 4.812 0 .433.862 1.714 1.917 2.845 3.367 3.615 7.03 12.014 8.736 20.033.91 4.283 1.941 8.12 2.29 8.525.348.406 1.44-3.419 2.428-8.5 4.08-20.995 6.802-28.363 12.93-34.988 4.369-4.723 8.94-5.102 13.658-1.13 5.905 4.968 7.46 11.047 4.586 17.926-2.16 5.171-4.301 5.479-7.797 1.12-4.236-5.279-7.05-4.978-10.118 1.084-3.438 6.795-6.969 19.34-8.097 28.776-1.346 11.25-6.13 22.474-9.581 22.474-1.108 0-2.19-.562-2.403-1.25M21.477 618.994c-.566-.915 4.636-7.706 8.028-10.481.686-.561 2.606-3.164 4.268-5.784 3.82-6.023 3.397-9.089-1.164-8.442-1.71.242-3.966.809-5.013 1.259-1.753.753-1.851.484-1.234-3.374.948-5.933 4.936-10.14 9.612-10.14 5.926 0 7.523 1.864 7.423 8.663-.116 7.91-2.867 12.92-12.06 21.966-7.598 7.475-8.712 8.19-9.86 6.333m220.826-2.159c-2.834-1.369-4.496-6.202-3.693-10.734 1.494-8.436 14.14-26.069 18.697-26.069 2.66 0 2.016 1.988-2.307 7.115-2.2 2.61-4.01 5.113-4.022 5.564-.012.452-.902 1.946-1.978 3.321-2.635 3.37-2.505 3.88.965 3.782 4.339-.123 6.035 1.78 6.035 6.77 0 3.515-.618 4.961-3.368 7.877-3.502 3.713-6.25 4.345-10.33 2.374m-31.857-76.89c-.37-.598-.279-1.48.202-1.96.48-.481 9.193-4.27 19.363-8.422 16.11-6.576 35.341-15.056 39.989-17.633.825-.458 5.66-3.126 10.743-5.93s9.809-5.644 10.5-6.314 4.07-3.366 7.507-5.994c9.359-7.153 8.112-9.728-5.056-10.44-7.09-.384-8.565-.79-10.944-3.019-2.394-2.242-2.75-3.333-2.75-8.438 0-8.576 3.288-13.97 10.5-17.226 4.484-2.025 8.062-.841 12.419 4.108 5.823 6.615 7.398 10.694 7.864 20.355.335 6.968.018 9.537-1.759 14.25-1.192 3.163-2.555 5.75-3.028 5.75-.474 0-1.124.827-1.445 1.839-.666 2.099-11.203 10.898-16.797 14.027-2.06 1.152-5.912 3.567-8.56 5.365-8.9 6.045-22.163 11.537-34.194 14.16a3915 3915 0 0 0-20.624 4.557c-10.36 2.33-12.974 2.511-13.93.965M296 469.067c0-1.29-3.38-3.035-5.875-3.035-2.255 0-3.558 1.49-2.625 3 .793 1.283 8.5 1.315 8.5.035m-276.027 68.26c-8.296-5.717-11.347-18.144-7.368-30.01 2.463-7.346 8.407-19.285 9.6-19.285 1.749 0 .175 7.9-3.298 16.563-3.89 9.7-4.397 17.391-1.349 20.44 4.674 4.674 14.52 1.684 23.27-7.066 2.165-2.165 4.348-3.937 4.851-3.937s2.694-1.85 4.868-4.112c5.924-6.162 21.137-17.7 27.72-21.023 3.195-1.613 5.534-3.377 5.198-3.921s.126-3.207 1.027-5.919c1.632-4.915 1.66-4.938 9.822-7.996 14.386-5.39 16.428-6.602 18.735-11.124 2.07-4.058 2.092-4.583.932-22.28-.653-9.969-1.355-18.402-1.56-18.74s-2.236-.865-4.515-1.17c-5.583-.75-10.647-5.033-14.827-12.543-1.882-3.38-4.211-6.397-5.177-6.703s-3.35.11-5.301.924c-4.331 1.81-8.608 8.21-14.598 21.845-2.488 5.664-5.75 11.254-7.796 13.361-3.191 3.286-3.899 3.572-7.613 3.084-5.753-.758-10.872-6.778-13.014-15.304-2.692-10.716-1.276-35.015 2.105-36.116.88-.287 1.172 3.493 1.134 14.655-.047 13.874.132 15.407 2.315 19.766 2.982 5.956 6.721 7.556 10.72 4.587 1.455-1.081 3.17-3.047 3.81-4.368 6.462-13.328 10.1-20.262 13.065-24.903 4.372-6.841 10.952-11.238 16.166-10.802 3.248.272 4.1 1.034 8.605 7.69 4.997 7.382 7.064 9.332 11.198 10.56 1.911.569 2.34.126 3.288-3.397.802-2.976 1.608-4.051 3.04-4.051 1.502 0 2.097.92 2.59 4 .352 2.2 1.145 3.996 1.762 3.99 3.402-.03 11.676-5.297 16.238-10.337 2.814-3.11 5.62-5.653 6.238-5.653.72 0 1.037 1.949.884 5.456-.26 5.95 1.101 7.855 6.363 8.912 4.62.928 12.9-2.632 14.925-6.416 2.285-4.27.788-44.319-2.371-63.443l-1.155-6.99-4.594-.655c-5.447-.775-16.302-5.942-20.108-9.57-3.52-3.356-7.638-11.616-8.621-17.294-.77-4.44-.798-4.466-2.097-2-.724 1.375-2.895 4.152-4.825 6.172l-3.508 3.672 4.07 1.22c2.239.67 5.67 2.538 7.627 4.15 3.162 2.606 3.556 3.457 3.556 7.668 0 3.648-.812 6.085-3.536 10.608-1.945 3.23-4.308 6.42-5.25 7.09s-3.008 2.339-4.59 3.709c-6.972 6.04-28.492 16.095-41.124 19.216-12.845 3.173-26.575.196-32.02-6.943-4.936-6.47-5.804-10.125-5.715-24.062.093-14.762 1.846-22.153 7.453-31.432 6.036-9.989 8.102-6.277 2.82 5.07C46.842 309.04 44 318.868 44 323.06c0 5.01 3.028 12.743 6.57 16.785 3.55 4.049 8.475 6.348 16.43 7.67 4.627.77 20.537-3.25 29.539-7.464 3.829-1.793 8.536-3.926 10.461-4.74 4.552-1.927 18-10.413 18-11.359 0-.905-16.43-6.92-18.903-6.92-1.777 0-5.999-1.193-11.347-3.207-2.103-.792-2.75-1.698-2.75-3.85 0-5.51 1.553-7.53 7.669-9.982 8.192-3.285 17.772-8.636 21.213-11.85 3.757-3.51 5.11-8.576 4.516-16.923-.261-3.679-.894-19.963-1.405-36.188-.58-18.387-1.467-31.949-2.356-36-2.387-10.886 1.336-24.365 4.484-16.23 3.603 9.31 5.568 28.021 6.324 60.23.936 39.865 3.044 54.307 8.738 59.874 3.473 3.396 12.485 8.126 15.482 8.126 1.739 0 2.36-.938 3.347-5.052 1.613-6.72 3.95-6.397 5.877.815l1.4 5.237h8.29c12.822 0 28.312-3.754 46.302-11.22 5.16-2.141 9.974-3.666 10.7-3.388.839.323 1.257 2.019 1.151 4.672-.13 3.276.331 4.569 2.162 6.051 2.892 2.342 3.992 2.373 4.804.135.349-.962 1.827-3.325 3.284-5.25 1.458-1.925 3.828-5.525 5.268-8 4.07-6.995 11.483-14.806 17.12-18.039 6.392-3.666 13.842-4.005 20.217-.919 5.003 2.422 13.062 10.712 13.984 14.384 1.783 7.104-3.2 18.12-10.63 23.502-2.236 1.62-8.248 5.02-13.36 7.558-8.657 4.296-9.976 4.652-19.195 5.178-5.72.326-11.5.122-13.69-.482-3.72-1.027-3.824-.981-5.446 2.42-2.365 4.96-4.75 4.143-4.75-1.628 0-3.249-.753-5.564-2.75-8.456-1.513-2.19-2.75-5-2.75-6.242v-2.26l-5.75 3.007c-3.163 1.654-6.65 3.203-7.75 3.443s-4.728 1.567-8.062 2.949c-9.446 3.915-17.108 5.657-27.67 6.29-9.243.555-9.71.69-9.265 2.69.569 2.551 2.985 24.652 4.495 41.105 1.24 13.517 3.541 25.655 5.64 29.745 1.474 2.873 10.7 10.72 12.702 10.804.638.026 5.66.431 11.16.9 11.512.98 29.052-.195 38.25-2.562 3.438-.885 6.25-1.823 6.25-2.084s-2.475-2.854-5.5-5.76c-3.025-2.907-5.5-5.6-5.5-5.985s-.664-1.365-1.475-2.176c-2.012-2.012-4.53-10.853-4.503-15.813.042-7.843 6.54-17.315 14.716-21.452 9.048-4.58 23.493-3.462 34.677 2.683 9.405 5.166 8.881 8.968-.915 6.65-7.707-1.823-11.07-1.801-22.574.144-11.914 2.014-18.422 4.677-17.466 7.148.374.967.924 2.968 1.223 4.448.855 4.238 9.36 13.993 15.308 17.56 7.497 4.495 14.79 4.543 24.009.156 11.045-5.255 26.403-10.903 27.275-10.03.97.97-3.294 11.103-5.363 12.744-.777.616-3.212 1.692-5.412 2.392s-7.825 3.053-12.5 5.228-10.75 4.767-13.5 5.76-8.825 3.59-13.5 5.773c-4.675 2.184-13 5.265-18.5 6.848-9.227 2.657-11.275 2.878-26.5 2.862-15.976-.017-16.722-.11-23.5-2.952-7.852-3.292-17.2-11.925-18.194-16.802-.79-3.878-1.957-4.225-2.645-.786-.869 4.346-6.637 9.562-12.093 10.936-7.664 1.93-16.384-1.635-18.663-7.628l-.945-2.487-4.941 4.622c-2.718 2.542-6.084 5.142-7.48 5.778-1.397.637-2.539 1.477-2.539 1.867 0 2.46 4.182 38.413 4.966 42.694 1.656 9.044 5.363 13.852 14.128 18.323 3.384 1.726 5.95 1.952 22.206 1.952 20.578 0 25.941-.94 42.772-7.503 5.186-2.022 10.666-3.912 12.178-4.2 2.628-.5 2.75-.347 2.75 3.467 0 4.844 1.74 6.509 6.803 6.509 5.834 0 9.796-2.68 14.463-9.786 5.309-8.081 7.734-8.61 7.734-1.687 0 5.803 1.21 7.2 6.235 7.2 3.482 0 3.74-.178 2.8-1.934-2.22-4.15-.197-13.066 2.965-13.066 3.607 0 5.128 9.797 2.718 17.5-2.508 8.014-6.278 11.504-12.418 11.496-3.255-.004-9.286-3.386-9.33-5.231-.017-.696-.55-.37-1.183.723-3.131 5.401-9.092 8.718-15.853 8.82-5.748.086-9.57-2.191-11.524-6.87l-1.423-3.406-4.744 2.13c-6.78 3.046-7.796 3.43-17.243 6.513-8.125 2.653-9.382 2.776-28.5 2.8l-20 .025-6.5-3.362c-10.398-5.378-14.256-9.946-16.996-20.125l-1.206-4.476-1.47 2.982c-.81 1.64-3.312 4.63-5.561 6.647l-4.09 3.666 5.287 4.861c5.182 4.765 5.273 4.945 4.574 9.081-.392 2.321-1.462 5.145-2.377 6.276-1.617 1.997-1.778 2.007-5.663.343-6.273-2.687-12.385-3.313-17.998-1.843-8.12 2.126-25.022 12.125-30.798 18.218-3.774 3.982-21.85 18.267-25.417 20.086-5.067 2.585-9.967 2.748-13.312.442m252.67-225.869c5.833-1.95 18.612-8.824 20.395-10.971 1.071-1.292.731-2.103-2.132-5.081-13.268-13.805-27.363-10.644-40.793 9.15-2.812 4.144-5.113 7.719-5.113 7.942 0 1.753 21.733.935 27.643-1.04M0 473.091c0-1.067.375-2.173.834-2.456.458-.284 2.076-2.309 3.595-4.5 3.017-4.355 2.772-6.816-.505-5.063-1.515.811-2.087.7-2.547-.5-1.138-2.964.523-6.31 3.68-7.41 7.36-2.566 9.64 5.769 3.82 13.97-3.092 4.358-6.68 7.835-8.127 7.878-.412.012-.75-.851-.75-1.919m57.475.9c-.534-.863 1.907-5.959 2.854-5.959.156 0 8.133-2.698 17.727-5.996 9.594-3.297 17.782-5.997 18.194-6 .413-.002.75.87.75 1.94 0 2.113-3.5 5.056-6.014 5.056-1.347 0-7.315 2.307-23.986 9.272-5.357 2.238-8.807 2.85-9.525 1.688M211 456.023c0-2.844 3.097-5.153 10.28-7.663 3.421-1.196 10.944-4.008 16.717-6.25 12.085-4.693 13.263-4.874 12.823-1.971-.252 1.657-2.875 3.166-12.32 7.084-6.6 2.737-15.15 6.29-19 7.896-8.312 3.466-8.5 3.486-8.5.904m-161.985-2.74c.025-2.867 1.325-4.107 6.026-5.746 2.452-.855 5.809-2.177 7.459-2.94 4.884-2.254 24.445-7.953 25.089-7.308.327.326.323 1.415-.008 2.419-.397 1.205-4.078 3.134-10.841 5.68A3003 3003 0 0 0 59 452.134c-8.741 3.37-10.005 3.515-9.985 1.148m814.014.5c.016-.687 3.435-5.075 7.597-9.75 12.482-14.018 16.539-21.148 14.535-25.545-.901-1.98-1.854-2.455-4.917-2.455-2.09 0-4.8.701-6.023 1.558-6.227 4.362-5.273-6.632 1.235-14.236 5.186-6.059 12.905-6.689 18.115-1.478 2.442 2.442 2.596 3.13 2.268 10.138-.498 10.657-5.531 20.378-15.814 30.541-10.135 10.019-17.074 14.602-16.996 11.227m-594.959-3.5c.152-3.774 1.747-5.56 6.981-7.819 2.997-1.293 6.124-2.366 6.949-2.385.825-.02 6.597-2.118 12.826-4.665 8.063-3.296 11.634-4.32 12.398-3.557 2.274 2.274-1.726 5.592-10.346 8.584-4.608 1.6-12.768 4.862-18.134 7.25s-9.979 4.342-10.25 4.342-.462-.787-.424-1.75M613 448.481c0-1.973 5.108-4.103 15.944-6.647 4.706-1.104 17.781-4.444 29.056-7.42s21.007-5.405 21.627-5.397 5.57-1.371 11-3.065 16.398-4.81 24.373-6.923 17.65-4.783 21.5-5.933 7.9-2.271 9-2.492c4.93-.987 21.332-5.834 24.5-7.24 1.925-.854 7.1-2.87 11.5-4.48 7.768-2.844 21.333-8.795 30.5-13.38 19.658-9.835 32.577-19.243 40.039-29.158 5.9-7.84 18.374-22.84 23.339-28.064 3.92-4.125 6.855-5.3 8.122-3.25.99 1.602 2.314 1.16 3-1.002.957-3.014 12.766-14.585 17.15-16.805 12.845-6.503 22.332-1.789 30.834 15.323 3.856 7.76 3.968 8.279 3.992 18.484.026 11.304-1.04 15.688-6.805 28-3.39 7.24-9.347 14.209-13.68 16.004-2.29.949-3.927.866-8.358-.422-3.03-.881-6.18-2.273-7-3.092-.82-.82-1.805-1.49-2.189-1.49-1.685 0-18.241-15.072-22.793-20.75-2.755-3.437-5.514-6.25-6.131-6.25s-2.055 1.913-3.196 4.25c-1.14 2.338-4.155 7.012-6.699 10.387S857 374.207 857 374.697s-1.237 2.042-2.75 3.45c-1.512 1.407-5.427 5.344-8.698 8.749-3.272 3.404-10.022 8.962-15 12.35-4.979 3.39-9.277 6.447-9.552 6.795s-5.609 3.431-11.853 6.852c-13.606 7.453-28.015 13.707-45.622 19.8-26.313 9.107-26.414 9.13-52.032 11.277-13.196 1.106-34.343 2.919-46.993 4.029-28.944 2.539-51.5 2.75-51.5.482m309-94.036c0-4.013-4.717-13.907-8.15-17.096-5.11-4.748-11.106-5.08-16.34-.906l-2.784 2.22 6.387 5.692c7.296 6.502 19.022 14.654 20.137 14 .413-.243.75-2.002.75-3.91m-784.952 80.837-4.209-3.75 2.045-4.75c2.395-5.562 4.417-6.05 9.019-2.178 2.884 2.426 5.097 2.556 5.097.298 0-.557.698-1.71 1.55-2.563 1.401-1.401 2.03-1.225 6.499 1.821 2.827 1.927 4.948 4.139 4.95 5.162.002 2.493-3.807 9.71-5.125 9.71-.598 0-2.86-1.404-5.026-3.12s-4.047-2.954-4.177-2.75c-.13.203-.86 1.608-1.623 3.12-1.865 3.7-3.99 3.464-9-1M468 407.418c0-.888 2.17-4.15 4.82-7.25 6.95-8.124 8.18-10.196 8.18-13.775 0-3.696-1.33-4.44-5.274-2.951-5.681 2.144-5.359-5.017.445-9.9 5.27-4.434 11.937-2.913 13.438 3.067 1.139 4.539-2.106 14.64-6.109 19.016-7.708 8.427-9.663 10.408-11.633 11.788-2.917 2.042-3.867 2.044-3.867.005zM3.573 397.112c-1.652-1.825-1.642-2.132.209-6.25 2.21-4.918 6.54-9.367 8.148-8.373.694.429.167 1.86-1.48 4.02-2.512 3.293-2.521 3.366-.504 4.006 2.593.823 2.717 4.607.225 6.862-2.402 2.174-4.466 2.092-6.598-.265m98.835-12.181c-1.339-1.48-1.85-3.403-1.731-6.5.094-2.42-.245-4.399-.753-4.399-1.639 0-.981-5.238.823-6.557 2.853-2.086 4.253.114 4.253 6.68 0 3.232.395 5.877.878 5.877 2.05 0 3.148-3.12 2.93-8.331-.129-3.067.023-5.833.336-6.146 1.413-1.413 3.853.992 4.386 4.324 1.1 6.868 1.509 8.153 2.596 8.153.677 0 .783-.66.28-1.75-.444-.962-.83-3.991-.857-6.73-.038-3.83.327-5.054 1.58-5.3 1.104-.217 1.806.582 2.178 2.48.302 1.54 1.12 4.7 1.82 7.021 1.098 3.647 1.042 4.702-.412 7.75-1.783 3.74-5.1 4.743-7.557 2.287-.878-.878-1.449-.921-1.95-.15-.8 1.236-4.608 3.392-5.987 3.392-.501 0-1.767-.946-2.813-2.101m31.839-13.052c-1.815-1.815-1.53-5.37.794-9.927 2.655-5.204 6.173-6.942 8.955-4.424 2.983 2.7 2.643 7.94-.746 11.502-3.212 3.376-7.211 4.64-9.003 2.849m7.503-7.097c-.622-1.868-3.412-2.072-4.093-.3-.44 1.15.064 1.55 1.958 1.55 1.597 0 2.396-.468 2.135-1.25m-51.272-.5c.385-2.062.773-3.822.861-3.91 1.173-1.163 27.409-8.865 28.084-8.244.561.517.5 1.742-.154 3.127-.787 1.663-3.87 3.318-11.423 6.134-5.69 2.121-11.54 4.484-13 5.25-4.345 2.28-5.153 1.845-4.368-2.357M232 349.011c0-2.2.612-3.266 2.25-3.921 16.327-6.527 36.675-13.466 37.39-12.751 1.58 1.58-1.2 4.637-5.917 6.503-18.708 7.402-28.449 11.375-29.96 12.22-2.874 1.606-3.763 1.122-3.763-2.051m201.368-3.462c-.664-1.73 5.954-21.25 9.109-26.87 1.857-3.308 3.146-4.194 9.093-6.249 3.812-1.317 7.83-2.852 8.93-3.412s7.625-3.064 14.5-5.564c21.45-7.8 43.456-15.661 44.5-15.895.55-.124 1.697-.531 2.549-.906.852-.374 6.477-2.412 12.5-4.53 6.023-2.116 17.926-6.404 26.451-9.53 8.525-3.124 20.9-7.634 27.5-10.021s15.15-5.559 19-7.047c3.85-1.49 9.25-3.376 12-4.194 2.75-.817 6.35-2.093 8-2.836 8.655-3.893 21.926-8.514 23.127-8.052.755.29 1.373 1.189 1.373 1.998 0 1.816-5.01 15.902-5.9 16.591-.355.275-1.452 1.766-2.438 3.313-2.05 3.222-5.835 5.022-24.662 11.736-13.4 4.779-21.738 7.936-52.5 19.876a3716 3716 0 0 1-28 10.732c-6.6 2.487-15.825 6.084-20.5 7.994s-9.441 3.666-10.591 3.902c-1.885.386-8.01 2.974-20.148 8.513-2.332 1.064-4.632 1.934-5.112 1.934s-3.972 1.38-7.76 3.065c-3.79 1.685-8.239 3.66-9.889 4.388-1.65.729-4.125 1.65-5.5 2.048s-5.425 2.068-9 3.71c-13.088 6.013-16.004 6.943-16.632 5.306m-287.593-46.075c-.306-.307-.056-1.888.558-3.513 1.02-2.704 2.268-3.331 14.641-7.365 7.753-2.528 13.91-4.038 14.425-3.538 2.096 2.033-2.282 5.685-9.574 7.985-4.029 1.271-9.448 3.363-12.042 4.65-4.709 2.335-6.954 2.835-8.008 1.781m280.246-14.692c.012-.687 2.382-3.727 5.267-6.755 8.857-9.294 11.997-16.181 8.065-17.69-.907-.348-3.025-.112-4.709.523-4.177 1.577-5.055.239-3.08-4.698 2.084-5.207 5.705-8.13 10.07-8.13 4.76 0 7.368 2.925 7.356 8.25-.01 4.788-3.608 13.273-6.848 16.155-1.178 1.048-2.142 2.29-2.142 2.759 0 1.412-5.196 6.794-8.574 8.882-3.645 2.253-5.435 2.486-5.405.704M187.5 280.103c-10.07-2.43-14.534-10.254-14.476-25.37.013-3.41.438-7.988.945-10.173s.749-4.143.54-4.353c-.45-.449-5.193 14.97-5.945 19.325-1.235 7.145-1.895 9.234-4.165 13.184-3.521 6.124-7.943 6.775-13.246 1.951-5.204-4.733-6.534-9.197-6.596-22.135-.062-13.06.848-19.5 2.755-19.5.904 0 1.218 3.585 1.205 13.787-.018 14.693.806 17.71 5.527 20.237 1.723.922 2.478.628 4.813-1.871 2.744-2.938 4.258-7.29 7.703-22.153 3.634-15.68 8.35-24 13.604-24 3.857 0 4.04 2.522 1.321 18.285-2.012 11.67-2.23 14.802-1.329 19.007 1.24 5.779 4.598 9.708 8.299 9.708 2.081 0 2.545-.479 2.545-2.629 0-2.715-3.319-54.095-4.95-76.65-.634-8.754-.59-13.794.14-16 1.152-3.483 3.579-5.982 4.972-5.12 1.978 1.221 8.838 20.298 8.838 24.574 0 3.24-.62 3.479-3.127 1.21-1.684-1.524-1.76-1.425-1.35 1.75 1.3 10.058 3.596 52.812 3.31 61.617-.183 5.639-.056 10.251.282 10.25 1.45-.005 6.062-4.43 7.652-7.34 2.424-4.44 2.321-22.753-.177-31.306-1.682-5.76-1.692-6.493-.164-11.75 1.68-5.778 3.665-7.173 5.453-3.833 1.494 2.793 3.852 12.64 6.636 27.709 2.763 14.96 5.21 20.807 9.675 23.116 4.959 2.565 13.81 1.292 13.81-1.985 0-.725-1.954-5.997-4.342-11.715-4.799-11.493-5.455-13.653-6.807-22.398-.51-3.3-1.175-7.382-1.477-9.07-.68-3.794 1.934-10.43 4.11-10.43 1.881 0 11.682 14.824 11.24 17-.18.877-1.211 1.403-2.487 1.267l-2.182-.234 2.364 6.734c7.234 20.606 7.957 28.962 3.282 37.965-4.3 8.281-10.23 10.865-18.069 7.872-5.193-1.984-7.602-4.4-11.512-11.55l-2.947-5.39-2.934 6.469c-3.266 7.204-8.13 11.919-14.161 13.726-4.183 1.253-4.259 1.255-8.578.212M71 276.86c0-.645 2.159-3.683 4.798-6.75 10.556-12.273 14.49-18.174 14.598-21.897.09-3.078-.3-3.736-2.727-4.607-2.23-.8-3.486-.642-5.907.748-3.84 2.204-5.24 1.038-4.363-3.636.944-5.031 4.57-9.913 8.962-12.065 11.375-5.574 18.79 8.083 11.607 21.379a191 191 0 0 0-3.373 6.583c-2.085 4.337-12.022 14.849-17.41 18.418C72.268 278.29 71 278.664 71 276.86m185-14.637c0-.995.563-2.49 1.25-3.322 1.494-1.81 13.888-6.615 21.92-8.5l4.68-1.093c1.9-.443 2.28-.188 1.988 1.338-.395 2.062-2.654 3.328-16.714 9.362C258.69 264.486 256 264.94 256 262.223m236.306-26.836c-.392-1.022.092-2.144 1.282-2.965 1.051-.727 2.456-1.787 3.12-2.356s1.64-1.034 2.166-1.034c.528 0 1.11-.345 1.293-.766.387-.89 14.1-9.234 15.177-9.234.398 0 4.026-2.25 8.061-5s7.672-5 8.082-5c.409 0 3.73-1.95 7.379-4.334s9.334-5.82 12.634-7.635c3.3-1.816 6.225-3.602 6.5-3.969s2.075-1.588 4-2.713c44.513-26.013 79.132-50.465 87.099-61.52l1.924-2.67-6.02-3.657c-8.284-5.032-15.903-11.191-17.089-13.813-.544-1.204-2.09-3.989-3.435-6.189-1.98-3.236-2.447-5.337-2.45-11-.01-14.553 4.468-24.026 17.545-37.108 13.865-13.872 26.374-18.975 36.775-15.003 3.527 1.347 4.918 2.667 7.257 6.889 2.803 5.057 2.892 5.649 2.834 18.722-.047 10.643-.544 15.405-2.351 22.5-4.354 17.098-4.445 14.958.783 18.398 7.906 5.201 8.322 5.516 11.769 8.885 1.954 1.91 3.359 4.28 3.359 5.667 0 3.152-3.239 10.583-6.985 16.028-1.658 2.41-3.015 4.84-3.015 5.4s-1.14 2.248-2.532 3.751l-2.532 2.732-4.718-4.554c-5.48-5.29-14.005-10.474-15.115-9.19-.42.485-3.481 4.258-6.801 8.383-11.45 14.226-33.5 33.148-53.794 46.164-4.955 3.178-9.887 6.466-10.961 7.307-1.075.84-2.5 1.529-3.167 1.529s-1.363.338-1.547.75c-.183.413-2.133 1.643-4.333 2.734s-6.124 3.209-8.72 4.706c-2.595 1.497-7.77 3.925-11.5 5.395-3.729 1.471-8.58 3.45-10.78 4.4-2.2.949-6.475 2.664-9.5 3.81a4526 4526 0 0 0-18.5 7.107c-28.008 10.818-31.906 11.81-33.194 8.453M666.784 84.9c.255-8.508.048-9.821-2.032-12.919-3.104-4.62-7.565-5.041-15.193-1.433-8.835 4.18-8.313 9.307 1.634 16.057 2.369 1.607 4.532 3.2 4.807 3.538.985 1.212 8.52 4.79 9.5 4.512.55-.156 1.128-4.546 1.284-9.755M144 225.599c0-.788.9-1.718 2-2.067s2-1.054 2-1.567.675-.933 1.5-.933 1.5-.45 1.5-1 .629-1 1.397-1c1.526 0 16.603-9.99 16.603-11 0-.343-.953-1.645-2.117-2.895-2.798-3.003-2.013-8.682 1.639-11.855 5.523-4.799 11.173-1.263 9.541 5.97-.633 2.809-.486 4.014.6 4.915.79.657 1.303 2.357 1.138 3.78-.251 2.158-.825 2.595-3.475 2.646-2.325.045-4.326 1.18-7.482 4.243-4.145 4.023-11.037 7.901-19.22 10.816-4.87 1.734-5.624 1.727-5.624-.053m28.604-27.296c-1.016-1.017-1.855.514-1.021 1.863.63 1.02.866 1.02 1.204.004.232-.695.15-1.535-.183-1.867m240.6 4.6c-6.756-3.343-12.132-11.504-14.736-22.371-.982-4.096-1.443-11.928-1.453-24.683-.014-17.53-.133-18.72-1.933-19.29-1.054-.336-3.08-1.524-4.5-2.64-2.146-1.69-2.582-2.856-2.582-6.913 0-5.81 1.26-9.05 5.695-14.642 1.818-2.293 3.305-4.559 3.305-5.035 0-.477 2.43-2.181 5.4-3.788 6.248-3.38 7.865-2.815 9.577 3.35 1.478 5.32 1.215 20.572-.494 28.64-2.575 12.154-1.473 21.698 3.669 31.793 3.064 6.015 5.292 7.71 10.098 7.686 8.141-.042 16.454-5.716 21.012-14.344 3.469-6.565 2.913-18.412-1.735-36.972-2.702-10.787-3.531-15.839-3.038-18.5.796-4.291 4.993-12.383 7.69-14.823 1.678-1.52 2.047-1.541 3.392-.197 4.141 4.142 9.769 27.976 11.442 48.463.983 12.05 3.519 20.519 7.393 24.7 3.75 4.046 13.248 5.918 18.977 3.74 5.234-1.99 6.98-8.54 3.265-12.254-2.548-2.548-13.518-28.294-14.583-34.225-.586-3.263-1.065-8.634-1.065-11.934 0-6.313 2.652-17.632 4.132-17.632.477 0 .868-.427.868-.948 0-1.353 4.519-6.052 5.82-6.052.599 0 1.35 1.688 1.67 3.75 1.982 12.791 3.89 20.648 6.615 27.25 1.702 4.125 4.85 12.578 6.995 18.784 4.931 14.269 5.27 23.263 1.383 36.677-3.06 10.56-5.441 15.38-10.201 20.649-4.681 5.181-8.095 6.89-13.764 6.89-10.244 0-20.894-8.387-24.447-19.25-1.125-3.44-3.071-5.164-3.071-2.722 0 3.09-7.753 16.778-11.646 20.562-8.09 7.862-20.538 10.545-29.15 6.282m-201.972-5.121c-.557-.687-1.267-3.275-1.578-5.75s-.844-5.638-1.184-7.028c-.447-1.83-.044-3.048 1.462-4.41 2.81-2.543 3.568-1.426 3.568 5.257 0 4.467.348 5.72 1.657 5.972 2.44.47 3.343-1.628 3.343-7.766 0-4.26.362-5.548 1.629-5.8 1.256-.25 1.784.775 2.307 4.475.98 6.94 1.512 8.3 3.248 8.3 1.166 0 1.36-.557.788-2.25-1.38-4.077-1.114-11.25.418-11.25 1.637 0 4.073 7.452 4.095 12.528.028 6.49-5.614 10.533-9.003 6.45-1.116-1.344-1.428-1.286-2.68.5-1.595 2.279-6.471 2.745-8.07.772m613.233-.701c-1.119-.454-2.637-1.551-3.373-2.439-2.013-2.425-.889-11.152 2.297-17.832C827.926 167.3 840 156.104 840 161.408c0 .757-1.687 3.172-3.75 5.367s-4.791 5.85-6.064 8.124l-2.314 4.133h3.064c3.734 0 7.064 3.08 7.064 6.532 0 4.797-2.722 9.454-6.432 11.004-3.934 1.644-4.255 1.667-7.103.513m-686.43-3.983c-.57-1.064-1.035-3.738-1.035-5.941 0-2.204-.45-4.285-1-4.625-1.446-.894-1.242-1.914.867-4.347 3.116-3.592 4.133-2.66 4.133 3.788 0 6.228.698 7.496 3.53 6.409 1.417-.544 1.61-1.515 1.123-5.63-.568-4.798.467-8.72 2.303-8.72.857 0 1.245 1.42 2.504 9.153.328 2.018 1.318 3.932 2.21 4.274 2.515.965 2.676.046.837-4.768-1.734-4.542-1.308-9.093.786-8.395 2.232.744 4.839 10.662 3.968 15.097-.737 3.75-1.122 4.169-4.102 4.457-1.81.175-3.979-.253-4.821-.953-1.262-1.047-1.699-.971-2.484.432-1.372 2.451-7.469 2.291-8.819-.231M261 191.39c0-.353 1.94-2.94 4.312-5.75 6.165-7.301 7.612-9.642 6.98-11.288-.418-1.09-1.52-1.288-4.424-.798-4.155.702-4.492.249-2.908-3.917 2.301-6.053 8.88-8.623 12.586-4.917 4.326 4.327-2.249 19.55-10.776 24.95-3.696 2.34-5.77 2.959-5.77 1.72m-129.47-14.31c-1.049-1.696.64-6.068 2.787-7.218 1.797-.961 25.233-8.83 26.3-8.83.21 0 .383.83.383 1.845 0 2.516-2.796 4.783-7 5.675-2.927.62-13.728 5.222-20.19 8.602-1.012.53-1.925.5-2.28-.073m71.137.285c-1.15-1.15-.728-4.129.801-5.658 1.741-1.741 27.37-10.17 28.25-9.29 1.293 1.293-1.765 5.587-4.434 6.226-1.531.367-7.417 2.63-13.079 5.028-11.502 4.873-10.637 4.596-11.538 3.694M171.702 141.4c-.348-.347 1.775-3.29 4.716-6.54 6.322-6.987 10.193-13.793 9.247-16.26-.521-1.357-1.602-1.666-4.917-1.404-4.245.336-4.248.334-4.09-3.014.232-4.894 4.63-9.15 9.458-9.15 5.27 0 6.884 2.023 6.884 8.626 0 7.867-2.998 13.652-11.206 21.624-6.552 6.364-8.603 7.607-10.092 6.118m574.786-13.387c-.348-.563 2.543-4.622 6.425-9.02 7.7-8.725 9.29-12.187 6.754-14.723-1.31-1.31-2.052-1.383-4.177-.415-3.9 1.777-4.49 1.482-4.49-2.246 0-2.224.907-4.501 2.589-6.5 2.236-2.658 3.25-3.077 7.443-3.077 3.883 0 5.166.445 6.411 2.223 3.996 5.704-.572 17.78-10.197 26.96-6.597 6.292-9.814 8.325-10.758 6.798m-443.113-24.445c-1.216-3.17 9.377-29.55 12.347-30.75.978-.395 6.053-2.326 11.278-4.291s10.4-3.997 11.5-4.514 5.375-2.046 9.5-3.397 13.125-4.503 20-7.005 13.4-4.747 14.5-4.99 5.928-2.004 10.728-3.912 12-4.46 16-5.67 7.722-2.557 8.272-2.991 5.275-2.246 10.5-4.026 14.35-5.205 20.278-7.612c5.929-2.408 11.26-4.378 11.85-4.378s6.09-2.003 12.222-4.45 15.2-5.87 20.15-7.605 11.574-4.232 14.72-5.55C512.73.12 521.367-.8 522.364.812c.598.967-5.492 14.918-8.547 19.578-2.36 3.6-7.986 6.305-23.369 11.233-3.878 1.242-9.642 3.404-12.807 4.804s-11.017 4.424-17.448 6.719-12.16 4.535-12.732 4.977-4.847 2.192-9.5 3.889c-9.775 3.563-34.563 13.174-48.961 18.982-3.025 1.22-8.875 3.479-13 5.018-7.914 2.954-31.106 12.358-34.5 13.99-4.908 2.36-13.5 5.885-13.5 5.538 0-.48-12.26 4.912-17.136 7.536-4.331 2.33-6.723 2.487-7.489.492m-64.547-1.994c-7.086-6.57-4.017-19.989 8.809-38.51 5.255-7.588 12.916-15.032 15.472-15.032 2.797 0 1.545 3.468-3.326 9.21-5.225 6.159-10.939 15.224-12.16 19.29-.553 1.84-.206 1.973 4.34 1.657 4.266-.297 5.305.02 7.607 2.322 2.377 2.377 2.618 3.246 2.222 8.021-.763 9.194-7.274 15.5-16.003 15.5-3.192 0-4.997-.638-6.96-2.458m323.318-13.029c-4.202-4.785-5.472-10.25-4.884-21.013.843-15.411 9.313-40.315 18.791-55.25 1.709-2.692 4.432-3.066 3.64-.5-.296.963-2.194 6.025-4.217 11.25C568.803 40.269 566 51.412 566 60.711c0 10.802 1.675 14.58 6.264 14.13 3.002-.294 6.199-3.501 10.382-10.414.892-1.474 1.423-1.63 2.388-.708 1.718 1.645-1.185 13.019-4.754 18.625-4.833 7.592-7.291 9.688-11.363 9.688-2.985 0-4.308-.681-6.771-3.487M365.743 35.442c-.324-.325 1.645-3.362 4.376-6.75s5.229-7.205 5.55-8.483c.83-3.3-.791-4.534-4.021-3.062-1.461.665-2.934.933-3.272.594-1.028-1.028.55-5.636 2.65-7.734 2.215-2.215 7.884-2.665 9.774-.775 3.801 3.801-1.796 17.822-9.4 23.55-4.637 3.492-4.765 3.552-5.657 2.66"/></svg>