<svg xmlns="http://www.w3.org/2000/svg" viewBox="0 0 926 869"><path d="M614.26 863.753c-73.861-15.348-126.725-37.868-156.377-66.619-27.309-26.478-48.404-79.934-67.665-171.464-2.62-12.449-4.025-17.422-4.48-15.854-13.961 48.04-31.722 78.12-67.229 113.861-46.35 46.657-118.173 88.004-180.67 104.008-14.94 3.826-26.663 5.85-39.316 6.79-73.11 5.427-102.23-48.027-89.707-164.668 5.122-47.703 24.05-107.917 33.502-106.57 3.3.47 2.623 4.147-4.778 25.914C-11.04 732.029 32.753 793.824 155 754.893c72.591-23.117 163.476-89.188 210.732-153.197 9.42-12.758 9.563-13.081 8.742-19.689-6.284-50.552-43.878-145.183-91.18-229.509-4.279-7.63-9.592-17.119-11.806-21.087-6.835-12.25-21.491-36.994-26.506-44.749-2.623-4.057-4.774-8.292-4.781-9.413-.018-2.99 10.875-69.09 11.746-71.272 1.5-3.76 31.493 28.028 50.833 53.877 51.734 69.144 83.4 146.608 95.975 234.78 3.35 23.495 3.283 23.229 4.813 18.84 2.763-7.929 14.602-24.956 25.306-36.399 7.481-7.997 36.45-33.199 36.706-31.932.055.272.758-.047 1.562-.71l4.93-4.055c1.907-1.568 7.258-5.363 11.89-8.433s9.607-6.483 11.056-7.586 2.921-2.006 3.273-2.006c.351 0 3.625-1.947 7.274-4.327 23.259-15.169 67.85-37.171 114.638-56.567a400 400 0 0 1 6.18-2.487c3.208-1.254 3.208-1.254.696-5.35-21.991-35.843-24.97-72.442-8.023-98.568 37.43-57.703 109.712-39.619 173.64 43.443 8.915 11.583 8.606 9.676 3.678 22.729-2.38 6.3-6.563 17.475-9.297 24.832-9.238 24.853-11.307 29.935-12.301 30.2-.545.146-3.89.79-7.432 1.432-14.367 2.602-38.268 8.685-58.955 15.004-25.949 7.926-23.377 6.772-22.848 10.26 2.176 14.347 1.077 29.67-2.671 37.214-2.763 5.563-5.693 6.578-5.693 1.973 0-9.076-11.653-35.133-15.246-34.09-41.072 11.925-141.075 62.957-175.426 89.52-3.234 2.5-6.342 4.855-6.907 5.235s-.818.896-.562 1.15c.806.797 70.675 6.067 112.928 8.52 10.082.584 25.91 1.507 35.175 2.05 71.811 4.205 157.56 6.294 234.629 5.715 56.578-.425 62.166-.324 61.623 1.108-.328.866-4.995 12.276-10.37 25.355-8.546 20.793-13.204 32.547-15.175 38.294-.396 1.153-2.693 1.978-7.814 2.808-76.404 12.372-165.027 33.776-227.222 54.879-68.358 23.193-107.172 43.21-129.699 66.886-14.27 14.999 26.6 51.267 85.606 75.967a3760 3760 0 0 0 16.623 6.886c5.6 2.305 10.395 4.404 10.656 4.665.396.396-9.378 60.996-10.955 67.925-.648 2.844-1.182 2.812-20.783-1.261m-104.513-120.46c6.218-83.525 44.108-125.748 140.49-156.554 8.483-2.711 7.577-3.507-4.27-3.751-24.627-.508-110.24-5.56-145.16-8.566-36.546-3.146-81.057-8.55-91.023-11.052-8.46-2.123 18.645 101.743 35.164 134.745 11.235 22.449 30.905 41.605 57.325 55.83 7.199 3.876 6.297 5.162 7.474-10.652m196.166-411.522c9.537-2.911 18.784-5.604 20.548-5.983 1.765-.38 3.41-1.016 3.656-1.414 1.26-2.039-28.205-22.774-39.754-27.975-3.71-1.67-7.636-3.444-8.726-3.94-16.525-7.536-37.846-5.385-45.314 4.572-1.694 2.258-1.568 2.514 9.413 19.156 6.121 9.277 12.818 19.512 14.88 22.744 3.752 5.877 3.752 5.877 15.854 2.005 6.657-2.13 19.906-6.254 29.443-9.165m22.793 456.028c-14.183-7.323-8.042-25.067 17.66-51.029 24.953-25.204 19.435-37.332-9.838-21.627-5.779 3.1-6.36 2.445-3.26-3.672 6.014-11.87 15.442-17.626 28.87-17.626 23.31 0 20.19 15.078-10.536 50.907-16.482 19.22-17.584 24.953-5.028 26.16 19.989 1.92 53.485-13.785 76.366-35.806 16.484-15.865 12.758-2.748-4.536 15.968-26.584 28.77-70.378 46.7-89.698 36.725M87.017 663.692c-.417-1.088 9.297-11.58 32.853-35.486 51.035-51.791 79.395-84.092 89.953-102.45.408-.71-2.093-2.436-6.715-4.63-29.957-14.227-36.17-29.208-20.474-49.37 25.462-32.706 55.42-9.209 46.376 36.377-.8 4.035-.8 4.035 4.954 7.598 12 7.429 14.706 13.87 10.213 24.315-2.815 6.542-4.748 8.302-6.177 5.62-5.164-9.683-20.575-17.361-20.575-10.25 0 2.434-19.012 27.228-32.542 42.44-21.778 24.483-68.374 67.247-89.828 82.44-7.055 4.996-7.372 5.13-8.038 3.396m130.408-165.457c0-17.235-10.457-25.383-23.266-18.128-9.407 5.328-8.072 7.678 10.79 18.993 13.256 7.952 12.476 8.006 12.476-.865M149.51 528.95c-23.476-11.063-17.245-48.242 14.16-84.48 3.679-4.246 7.135-8.366 7.68-9.156 25.172-36.466 83.727-42.48 83.727-8.598 0 11.322-9.05 25.386-10.008 15.553-1.32-13.534-13.782-20.639-29.756-16.965-32.014 7.362-78.384 58.453-68.874 75.887 3.13 5.736 11.005 12.32 14.737 12.32 2.051 0-2.9 13.205-6.578 17.547-.097.114-2.386-.835-5.088-2.108m-84.875-97.015c-12.212-3.863-16.436-19.974-10.825-41.289 7.825-29.73 19.805-54.675 33.109-68.941 6.666-7.148 8.266-6.356 3.797 1.88-26.152 48.191-33.006 75.637-21.71 86.933 5.878 5.88 16.58-2.925 16.626-13.68.005-1.225.404-2.229.885-2.229 1.334 0 2.069 3.793 2.084 10.747.04 18.457-10.987 30.686-23.966 26.58m314.298-111.453c0-.517 1.398-5.26 3.107-10.54 4.994-15.427 8.308-18.259 45.94-39.252 37.251-20.782 126.313-61.419 126.338-57.645.049 7.482-9.02 20.835-16.341 24.063-2.187.964-12.225 5.412-22.307 9.885a7964 7964 0 0 1-27.248 12.035c-36.947 16.17-88.222 44.775-101.89 56.841-3.041 2.686-7.599 5.452-7.599 4.613M105.792 246.24c-.852-2.038-2.858-7.257-4.459-11.599-1.6-4.341-3.516-9.251-4.256-10.91s-4.218-9.482-7.728-17.384c-13.35-30.05-17.166-34.58-21.279-25.266-1.443 3.27-2.772 6.14-2.951 6.378s-2.212-1.368-4.517-3.57c-2.304-2.203-7.22-5.961-10.922-8.352-11.239-7.258-13.706-14.91-8.56-26.544 11.04-24.959 37.84-8.032 56.293 35.556a1538 1538 0 0 0 3.593 8.422c.707 1.635 2.5 6.316 3.984 10.404 1.484 4.087 3.272 8.992 3.973 10.899 1.524 4.14 1.379 4.55 4.905-13.872 11.93-62.323 27.486-77.063 49.848-47.23 2.105 2.808 2.105 2.808-.432 9.413-1.396 3.633-2.96 8.055-3.475 9.826-1.241 4.264-1.626 4.102-6.503-2.739-14.89-20.884-23.92-9.97-33.502 40.484-7.636 40.212-9.877 45.981-14.012 36.084m343.94-22.476c-5.086-2.187-8.474-9.093-10.411-21.222-.573-3.585-2.12-8.667-3.44-11.293-2.365-4.709-2.378-4.886-.956-12.92.792-4.482 1.449-8.482 1.459-8.89.105-4.297 7.215 8.48 8.96 16.1.685 2.998 1.641 7.102 2.124 9.12 2.179 9.124 8.818 12.18 14.465 6.658 5.242-5.124 4.307-11.059-4.468-28.365-3.342-6.592-3.757-22.67-.67-25.948 1.179-1.252 10.294 13.09 10.323 16.241.08 8.654 13.518 28.24 19.374 28.24 9.043 0 8.066-8.073-2.415-19.957-3.875-4.394-3.986-19.887-.172-23.934 2.052-2.177 16.972 21.43 19.375 30.658 6.328 24.295-10.509 42.705-27.305 29.854-3.529-2.7-3.529-2.7-5.292 2.203-3.796 10.556-13.381 16.712-20.952 13.455m145.66-12.529c-.359-.58-.497-1.22-.306-1.421.191-.2 12.386-12.56 27.1-27.464 57.48-58.224 98.595-105.399 94.883-108.867-.414-.386-5.88-3.303-12.147-6.483-27.627-14.015-31.202-29.997-11.135-49.78 26.773-26.392 51.158-3.468 42.553 40.005-.785 3.963-.785 3.963 4.565 7.154 11.63 6.937 14.971 14.101 11.005 23.593-3.723 8.912-3.594 8.894-11.19 1.557-11.743-11.342-11.958-11.37-17.578-2.328-2.624 4.222-5.107 8.122-5.518 8.667-24.808 32.883-56.34 65.072-97.929 99.967-1.37 1.15-4.118 3.31-6.107 4.8s-4.212 3.28-4.94 3.977c-6.56 6.28-11.838 8.917-13.255 6.623M724.734 48.06c-.014-17.368-9.509-25.916-21.793-19.62-11.4 5.842-9.538 8.948 13.36 22.28 8.786 5.114 8.44 5.224 8.433-2.66m-413.15 113.7c-.017-7.116 6.367-21.16 12.48-27.455 15.32-15.777 100.224-58.913 190.836-96.955 9.657-4.055 17.782-7.373 18.053-7.373s2.849-1.068 5.726-2.373c4.49-2.036 14.336-6.031 35.832-14.538 2.661-1.053 5.422-1.915 6.136-1.915 2.198 0-4.509 13.664-8.942 18.22-4.457 4.58-5.899 5.328-32.75 16.998-25.785 11.207-67.402 29.453-72.826 31.929-2.453 1.12-8.472 3.806-13.377 5.972-19.393 8.56-71.25 33.577-82.505 39.8-28.812 15.934-54.012 32.521-57.932 38.134-.45.644-.73.475-.732-.444"/></svg>