<svg xmlns="http://www.w3.org/2000/svg" xml:space="preserve" viewBox="0 0 2280.95 2280.75"><path d="m1128 0-29 .79-20 1-12 .96-43 3.21c-74.57 7.22-148.31 22.96-220 44.55-59.05 17.79-116.87 41.47-172 69.03-227.97 113.99-413.23 301.552-522.22 532.25-45.29 95.86-76.6 196.44-94.03 301-5.52 33.16-9.54 66.5-11.84 100l-1.91 25-1 21v21l-1 15v10l1 16v21l1 21 .96 11 5.2 61c4.1 38.25 11.13 76.46 19.42 114 31.63 143.25 92.08 281.71 176.14 402 69.039 98.799 150.431 184 246.28 257.12 95.06 72.51 202.06 130.03 315 169.22 72.08 25.02 146.32 42.98 222 52.94l81 7.81 10 .91 21 1h20l11 .96h16l16-.96h22l19-1 10-.91 81-7.81c71.62-9.43 143.6-25.99 212-49.28 284.438-96.89 519.74-300.982 654.25-570 25.1-50.2 47.31-102.5 64.41-156 20.95-65.57 36.64-132.73 45.62-201l7.81-81 .91-10 1-21v-21l.95-15v-14l-.95-12v-22l-1-20-.91-10-7.81-81c-7.21-54.82-18.7-108.83-33.86-162-87.02-305.258-301.602-562.34-585.42-704.25-52.81-26.4-107.59-49.24-164-66.77-65.059-20.23-125.37-34.36-193-43.26l-66-6.81-31-1.91-14-1h-21L1147 0Zm-32 9.93h82l17 .86 31 1.91c47.07 3.24 93.69 9.83 140 19.09 212.859 42.56 405.36 146.221 562 296.04l33.04 33.96c127.07 132.85 222.04 300.481 270.11 478 16.09 59.4 27.89 119.75 34.02 181l3.92 49 .95 10v11l.96 12v75l-.96 12v11l-.95 10-5.81 66c-9.69 78.489-26.67 156.211-52.62 231-53.079 152.93-137.62 293.9-249.62 411l-33.04 33.96c-139.12 133.06-302.561 227.06-488 278.62-52.95 14.72-107.45 25.05-162 31.57l-67 5.94-10 .95h-11l-12 .96h-75l-12-.96h-11l-10-.95-82-7.81c-82.979-10.92-164.63-31.54-243-60.86-116.399-43.54-220.25-103.14-317-181.22-192.94-155.71-330.7-375.091-387.88-616.2-11.17-47.08-19.47-94.86-24.29-143l-3.92-49-.91-16-1-15v-77l1-21 .96-13 4.21-53c3.24-32.45 8.63-65.02 15.03-97 19.42-97.099 48.3-181.51 90.58-271l16.44-32c18.32-34.73 37.99-68.31 59.78-101 38.51-57.76 82.07-111.84 130.04-162L362 319.75C481.59 205.371 633.2 114.57 791 64.13c67.41-21.54 136.74-37.3 207-46.06l64-6.28h8l11-1c6.09-.03 8.79.18 15-.86m90 71.86c0 5.39.29 12.08-2.3 16.98-2.53 4.8-6.21 6.55-10.65 2.78-1.23-1.05-2.35-2.41-3.24-3.76-1.18-1.81-1.99-4-2.81-6-4.39 3.83-6.32 9.16-10.04 10.76-1.97 1.16-3.79.98-5.62 0-6.03-4.06-4.11-12.94-3.34-18.76-15.38 8.87-20.71 28.99-3 36.63 8.12 3.51 14.77-.83 20 0 7.07 1.09 8.81 6.66 19 2.02 8.04-3.66 11.88-9.99 12-18.65.12-9.52-.95-16.87-10-22m-27 54c-6.32 1.15-11.12 4.19-17 6.55l-21 6.29c-17.76 4.66-41.7 4.52-55.99 17.34-11.09 9.97-20.79 33.07-7.8 45.35 6.35 6.01 17.34 7.65 25.79 7.46l23-3.3c3.08.92 6.37 4.84 9 6.93 3.11 2.47 12.13 6.89 16 7.51 4.61.73 12.79-.41 17-2.51 4.33-2.15 8.06-6.03 13-6.34 7.24-.46 17.35 6.73 28 7.54 2.86.21 5.2-.29 8-.69 13.85-2.01 19.83-10.6 20-24.13.23-19.57-5.89-32.58-17.47-48-6.31-8.39-15.21-16.99-25.53-20 1.89 7.66 18.45 27.7 17.32 41-.51 6.03-3.85 15.51-10.32 17.34-3.61 1.03-6.63-1.99-8.91-4.36-5.02-5.23-8.34-12.79-9.09-19.98-4.33 2.69-4.63 6.48-6.45 11-2.67 6.65-7.56 16.54-14.55 19.45-7.57 3.16-14.02-8.27-11.9-16.45 2.85-11.03 11.96-24.9 18.79-34 3.47-4.61 7.81-8.68 10.11-14m56 22 8.91 17c4.73 11.32 4.66 20.12 3.09 32 10.3 2.19 9.94 10.34 21 10.96 22.26 1.24 31.1-27.66 19.67-40.92-9.68-11.24-20.28-8.87-27.67-10.64zm-109.02 11.38c7.47.29 5.44 5.55 3.68 10.62-2.24 6.45-7.36 19.07-14.66 20.67-7.58 1.66-14.92-7.59-12.26-14.67 2.92-7.79 15.34-14.91 23.24-16.62M1290 236.79c-13.4.19-20.98 13.09-23.37 25l-.8 9-.8 8c0 4.76 2.49 12.75-.63 16.61-2.47 3.06-10.54 5.36-14.4 7.17l-20 9.3c-6.76 2.71-17.7 6.8-22.74 12.1-5.68 6.13-8.02 19.39 0 24.81 3.29 2.31 10.66 2.96 14.74 3.05h12l24 1.96c4.84.02 7.09-.07 12 .58 3.77.49 13.2-.48 14.7 3.64 1.41 3.86-5.06 7.88-7.7 9.55-11.46 7.29-20.22 12.21-27.54 24.23-1.74 2.86-5.07 11.9-9.29 10.66-1.76-.51-3.56-3.25-4.64-4.66l-9.89-13-11.51-17-21.39-30c-2.25-3.31-11.09-14.94-11.02-18 .06-3.03 6.39-11.98 8.28-15l23.56-36.96 7.45-12.04c.85-1.5 2.08-3.57.94-5.26-1.42-2.1-6.67-1.74-8.95-1.74h-12c-6.94.13-7.72 2.71-11.67 8l-15.26 23c-1.83 2.77-6.66 11.61-10.16 11.66-3.92.06-7.7-6.8-9.65-9.66l-21.3-30.69c-2.19-2.39-3.91-2.25-6.96-2.31h-22c2.91 8.63 8.08 15.4 12.84 23l16.16 26c2.71 4.12 12.25 16.46 11.99 20.58-.23 3.8-10.37 16.74-13.12 20.42l-13.51 19-20.53 28-10.58 13.99c-1.4 1.79-3.61 4.71-6.15 4.67-4.32-.06-5.66-8.76-9.89-14.66-8.58-11.99-25.94-19.87-33.21-28l16-2.29 30-4.42 18-1.71c10.52-1.44 20.76.18 19.91-14.58-.88-15.12-8.46-16.36-19.91-21.92l-23-11.33-8-3.89c-7.08-3.17-8.88-3.57-9-11.86l.96-15c.31-9.94-5.16-28.61-13.97-33.99-3.07-1.88-5.53-1.96-8.99-2.01-4.05-.05-8.06-.14-12 .93-18.21 4.92-24.09 19.79-24 37.07.06 11.8 5.32 21.56 15 28.37 4.04 2.84 6.74 3.06 9.96 5.01 3.41 2.08 5.7 5.2 9.05 6.69l5.99 1.48c1.6.55 10.57 5.8 11.63 6.93 6.5 6.93-10.32 5.52-12.63 5.52h-32l-14-1c-4.67-.05-15.23-.83-18.87 1.74-9.61 6.79-3.14 27.45 3.97 33.93 7.86 7.17 21.79 9.86 31.9 13.65 8.02 3.01 24.83 12.22 32 17.1 2.25 1.53 6.04 4.02 7.9 5.79 4.01 3.8 9.48 14.16 8.95 19.79-.26 2.77-1.41 4.86-3.19 6.96-5.13 6.05-10.65 5.78-17.66 3.7L1003 421c-3.94-1.38-12.8-5.26-16.77-3.6-3.2 1.34-3.57 6.35-4.17 9.39v8l-2.02 16c-.14 3.22-.36 6.98 2.27 9.3 3.32 2.92 8.6 2.49 12.69 2.98 13.29 1.6 17.56 1.87 31 1.72l28-2.6c14.67-3.88 25.15-12.51 36.01-22.45l22.99-21.95c1.84-1.82 7.51-7.98 10.11-7.84 3.41.18 4.71 6.23 5.7 8.84l8.5 20c1.22 2.65 4.16 7.25 4 10-.22 3.92-6.15 10.01-8.73 13-7.48 8.64-20.83 18.81-31.58 22.94-3.64 1.39-9.14 3.49-13 2.63-9.38-2.09-13.77-14.13-18-21.57-4.68 8.96-3.64 23.54-.86 33 1.01 3.41 2.57 8.06 5.25 10.49 2.72 2.48 9.93 4.24 13.61 4.41 4.16.18 5.35-.81 9-1.53l8-1.41c8.12-2.39 23.78-11.2 31-16.05 6.66-4.47 10.23-8.64 16-13.62 2.01-1.73 5.18-4.65 8-4.42 4.16.34 13.07 10.63 17 13.5l6 4.01 6 4.99 10 5.14 10 5.61c14.77 6.35 31.25 6.43 41.09-8.12 2.57-3.81 3.42-6.67 4.62-11 2.98-10.77.14-11.59-.71-21-6.97 4.39-9.07 19.1-22 18.33-17.43-1.05-32.38-11.77-43.73-24.37-2.94-3.27-9.62-9.71-9.94-13.96-.33-4.36 7.14-13.57 9.52-19l7.34-18c.98-2 2.51-5.01 4.85-5.66 3.35-.93 7.79 5.37 9.81 7.66 7.79 8.86 15.47 18.89 25.15 25.79 13.36 9.53 28 19.18 45 19.21l27-1.09 10-.91c5.17-.06 20.96 1.38 24.13-2.51 2.03-2.48 1.03-6.51.91-9.49l-2.09-23c-.31-2.72-.48-8.06-3.26-9.4-3.42-1.64-11.05 1.31-14.69 2.28l-41 12.96c-7.81 2.5-18.85 3.54-21.57-6.84-2.22-8.48 7.77-19.56 13.58-24.72 12.19-10.82 26.73-18.45 41.99-24l22-6.17c1.57-.62 2.62-1.28 3.9-2.38 5.89-5.14 7.64-11.72 9.92-18.73 1.18-3.63 3.17-7.03 1-10.81-2.63-4.6-9.11-5.13-13.82-5.03h-64.99c-1.65.01-4.81-.76-4.39-3.07.35-1.91 3.82-3.73 5.38-4.62 1.85-1.04 7.29-4.15 9-4.58l5.87-.57c2.95-1.04 3.78-4.15 7.18-6.91 4.4-3.55 9.2-3.3 14.86-8.6 16.74-15.66 18.449-50.78-3.91-62.41-5.56-2.89-10.95-2.48-17-2.4m1.04 27.51c12.91-1.88 16.11 16.59 3.95 20.79-14.44 4.99-15.42-15.56-3.95-20.79M1033 266.22c6.94-.88 11.23 2.42 11.89 9.57.39 4.25-1.06 10.51-5.98 11.47-1.66.32-3.36-.18-4.91-.72-11.22-3.93-10.139-16.62-1-20.32m129.96 83.31c5.29.21 7.4 6.22 10.16 10.26 1.95 2.86 4.64 6.64 5.47 10 2.35 9.63-3.53 28-7.46 37-1.51 3.44-6.52 13.35-10.18 14.26-2.94.72-4.52-2.1-5.63-4.28l-6.46-15.98c-2.43-7.08-6.19-18.69-4.31-26 1.11-4.3 6.38-12.29 9.09-16 2.94-4.02 4.75-7.05 9.32-9.26M1440 410.89l-19 .9c-3.749.01-5.32-.04-9 1 2.91 7.87 6.92 10.68 11.77 17l10.77 17c11.18 18.16 16.77 32.05 23.53 52l5.11 16c1.39 6.54 1.89 14.31 1.82 21-.37 31.23-14.52 60.05-35.17 83-7.38 8.2-15.54 15.09-23.83 22.29l-39 30.97-25 17.48-55 42.56c-21.03 17.93-44.91 42.59-57.05 67.7l-8.34 20c-.81 1.96-2.54 5.65-5.2 5.27-2.39-.35-5.72-5.31-6.95-7.27-4.08-6.52-10.17-18.74-12.77-26-5.5-15.4-9.66-32.59-9.69-49v-20l2-35 1-14c.26-22.58-1.01-49.98-22-63.56-4.87-3.15-8.48-4.84-14-6.56-5.79-1.79-7.8-2.8-14-2.88-9.25-.1-18.62.61-19.52 12-.32 1.75-.2 3.27 0 5 2.5 11.18 15.74 5.91 19.52 6.91 2.65.69 6.95 4.34 8.96 6.26 8.88 8.47 10.64 20.4 12.48 31.83 1.12 6.97 1.55 6.37 1.56 14v38l-2 35-1 14v9l-1.91 17v16c-.01 6.36.67 5.68 1.59 11 .77 4.42.28 4.99 1.83 10 2.03 6.59 3.89 10.89 8.81 15.92 3.96 4.04 14.35 12.77 16.51 17.08 3.3 6.6-1.64 14.24 1.34 19.96 1.62 3.1 5.17 5.31 7.83 7.5l15 11.58 9 7.3 22 16.54c5.19 3.82 11.05 8.81 17 11.12l4.17-32 5.87-27 3.96-12c6.61-19.79 15.63-38.88 27.62-56l7.96-10 8.84-11.12 13.86-14.42c11.87-11.1 35.91-28.64 49.72-37.94l25-15.39 46.96-34.14c40.97-35.44 60.77-78.94 67.32-131.99l2.72-25v-35c.01-2.86-.44-7.2 2.31-8.97 3.08-1.98 7.64.49 10.69 1.52l27 10 13 5.11 14 7.8 8 3.78c23.09 12.74 50 32.53 67.91 51.76 28.63 30.72 46.19 59.41 57.17 100 2.47 9.12 4.91 27.57 4.88 37v14l-.96 12c-.01 9.05-.95 18.05-2.27 27l-3.41 18-4 23-7.46 24-5.52 16c-9.84 25.31-28.6 54.52-48.51 72.92-19.44 17.97-38.62 30.04-63.83 38.26l-24 6.36c-7.7 1.39-6.5-.7-16 3.46 5.55 13.87 11.82 26.61 12.15 42 .92 41.98-30.22 69.52-71.15 70-17.69.2-33.75-3.32-50-10.33l-13-6.63-12-5.45-24-11.56c-2.92-1.46-8.94-5.4-12-5.33-2.92.06-5.88 2.78-8 4.59l-15.17 13.37c-1.98 1.76-5.78 4.86-6.66 7.33-1.45 4.06 4.02 6.83 6.83 8.59l30 16.47 13 6.37c20.81 10.159 41.81 18.61 64 25.3l21 6.68 36 4.6c13.42.15 31.24-.66 44-4.89 30.3-10.04 45.57-32.62 53.74-62.11 1.83-6.57 3.43-13.18 4.22-20v-8l1-8-2.24-24c-.44-3.38-1.57-7.88 1.59-10.36 2.32-1.82 7.67-.68 10.69-.64 10.15.11 30.96-1.69 40-5.75 7.74-3.48 31.48-22.961 37.91-29.33 9.28-9.22 27.55-28.98 34.9-39.01l13.39-20.91c18.8-31.33 29.91-60.04 36.41-96 2.02-11.13 5.37-30.06 5.39-41v-36l-1.83-20c-2.98-30.75-10.41-59.45-22.31-88l-10.92-22c-22.15-42.4-45.291-70.06-82.94-99.66l-23-16.9c-20.97-13.36-43.6-24.78-67-33.22l-18-5.73-36-9.98-9-1.32c-19.79-3.93-30.48-5.95-51-6.19l-10-.9zm-627 10.74c-7.69.17-15.37 1.97-23 3.03-18.64 2.59-36.97 6.33-55 11.69l-24 6.95c-28.39 9.47-57.91 22.5-83 38.83-18.87 12.29-46.85 36.07-61.83 52.66l-10.45 13c-23.96 30.21-45.42 66.17-57.43 103l-5.02 19c-4.67 17.7-10.05 45.9-10.31 64v13l-.87 7 .91 15c.01 9.1 1.67 25.94 3.14 35 8.56 52.51 36.95 112.56 75.2 149.74l8.66 9.22 17 14.32c6.6 5.21 16.01 13 24 15.5l8 1.58c4.97 1.05 4.28 1.56 10 1.64 9.36.12 11.77-.1 21-1.28 3.27-.42 6.94-1.37 9.62 1.59 2 2.68.62 8.37 0 11.69-1.56 14.97-1.64 13.65-1.62 29 .04 27.089 11.05 57.03 32 74.79 11.02 9.34 35.52 16.69 50 18.12h13c6.34.15 12.71-.85 19-1.63 23.31-2.87 46.37-8.86 68-18.15l12-5.82 9-3.62 37-18.73 9-5.45 9-4.37 18-11.14c-3.36-7.05-15.68-15.71-22-20.8-3.19-2.58-6.6-6.22-11-5.93-5.6.36-17.02 7.19-22 10.13l-12 5.85-17 8.94c-14.12 7.06-37.23 15.79-53 15.81h-12c-17.58-.08-36.45-8.3-48.68-20.87-4.31-4.43-9.01-11.56-11.69-17.13-2.6-5.41-6.13-17.1-6.53-23-.56-8.17 3.57-26.13 6.56-34l6.34-16c-6.23-1.9-12.62-2.4-19-3.44l-16-3.71c-24.18-6.38-48.39-18.19-67-35.02-4.44-4.02-13.7-13.36-17.42-18-12.14-15.12-28.99-47.21-35.06-65.83l-7.75-31c-3.77-16.33-8.01-43.41-8.75-60v-39c0-12.86 4.39-29.76 8.47-42l4.68-14c9.53-24.429 29.43-53.67 47-73 19.37-21.31 51.43-43.82 76.83-57.69l25-12.53 27-11.75c2.52-.7 7.44-2.69 9.69-1.22 2.69 1.75 2.3 6.38 2.31 9.19v38l.91 10c2.87 39.19 14.96 79.261 38.7 111 9.3 12.44 26.93 28.05 39.43 37.63 37.32 28.59 81.64 47.29 116.07 79.79 27.92 26.359 48.77 60.39 58.61 97.58l4.09 20 2.9 13 .59 9c1.22 8.58 1.7 7.47 1.7 17 8.77-2.56 15.17-9.64 22.17-15.15l36.83-28.43c3.25-2.66 11.86-8.94 13.12-12.59.95-2.26-.04-7.09 0-9.83-.16-2.47-.21-5.66.58-8l12.07-20c7.92-13.88 12.21-24.84 16.87-40 6.61-21.54 11.11-43.64 13.53-66 1.03-9.5 1.7-7.47 1.83-19l1-15v-33c-.01-8-1.2-24.29-9.09-28.43-6.46-3.39-14.13-.86-21.91-6.96-5.7-4.48-9.89-11.02-12.71-17.61-1.92-4.47-2.69-10.18-7.38-12.69-4.33-2.31-14.88-2.13-19.91-2.35l-12-.92c-14 .54-37.58 5.67-49 13.74-6.49 4.6-12.2 11.33-16.13 18.22-3.45 6.04-5.7 10.99-5.87 18 5.66-2.2 9.86-6.21 15-9.34 7.11-4.33 23.93-11.92 32-13.22l12-.58c8.62-.12 16.66 1 22.47 8.18 4.1 5.07 9.61 20.31 11.79 26.96.9 2.76 3.28 10.7 4.82 12.69 2.86 3.68 6.72 1.13 12.88 4.23 6.9 3.47 7.03 13.31 7.04 20.08v27c-.02 10.54-2.8 20.86-5.34 31-3.64 14.56-7.83 28.44-14.44 42l-11.74 21c-1.31 1.96-4.12 6-6.43 6.66-2.92.85-4.28-2.54-5.1-4.66l-9.65-22c-15.48-29.49-38.63-50.13-64.3-70.55-41.34-32.88-106-67.77-139.25-107.45-14.13-16.87-24.99-34.27-29.76-56-1.24-5.64-1.91-5.82-1.99-12-.29-24.36 1.21-33.87 9.55-57l4.29-9c9.919-21.5 14.53-29.41 27.9-49l12.26-17c-10.8-2.86-19.96-1.98-31-2.16h-9zm507 77.16c-5.12 2.63-13.28 13.33-20.01 18.65-17.89 14.13-38.54 27.02-59.99 34.88-4.43 1.62-11.46 4.39-16 5.15-11.8 1.96-18.76-4.05-29-8.51-12.19-5.32-22.75-7.94-36-8.43-9.94-.36-19.77 1.76-29 5.32-6.95 2.68-15.29 7.61-23 5.51-4.27-1.16-8.35-6.07-12-8.89-6.77-5.24-14.63-9.64-23-11.64-12.81-3.06-28.66-2.14-40 5.09-16.57 10.57-28.83 41.61-29 60.87 10.38-.51 20.5-7.27 31-8.79l26-2.21 22 2.51c5.72 1.18 11.1 2.89 17 3.31 10.84.77 19.23-5.9 37-5.18h6c14.46 1.22 28.22 9.32 40 17.15 7.77 5.17 7.61 7.26 18 11.9 11.49 5.13 23.66 5.57 36 5.01 8.64-.39 20.7-5.86 29-9.15 1.95-.77 8.87-2.91 9.83-4.12 1.55-1.96 2.07-9.62 2.63-12.43 1.09-5.43 3.83-10.49 6.98-15 11.01-15.8 26.63-30.2 32.81-49 2.25-6.83 2.89-13.88 3.43-21zm234 8 1 17c.03 16.32-.39 33.11-4.58 49-8.35 31.69-22.65 52.991-29.12 76-3.28 11.66-3.27 22.11-4.12 34-.24 3.42.35 4.84.65 8l.55 8c2.72 13.71 14.6 34.93 25.79 43.25 6.19 4.61 16.14 7.95 23.83 8.53 2.42.18 5.54-.44 8-.78 14.88-2.04 28.44-9.05 38.83-20.04 10.04-10.61 18-22.32 23.3-35.96 1.24-3.2 3.89-12.96 7.9-12.96 3.63 0 6.23 6.12 7.27 8.96 4.71 12.74 3.85 18.78 3.7 32-.13 10.96-4.62 25.8-8.66 36-11.59 29.25-23.69 47.48-49.34 66.63-10.4 7.76-25.09 14.93-38 17.29h-7c-2.79.51-4.02.99-7 .76-14.5-1.16-26.82-8.4-35-9.68 0 9.26.69 15-2.59 24-2.32 6.36-4.55 10.85-9.14 15.91-3.81 4.2-9.02 8.5-14.27 10.73-9.94 4.22-26.64 3.34-35.83-2.42L1425 860.26c-8.48-5.26-21.13-9.48-31-11.27-7.46-.93-11.74-.55-19 0-20.44.64-37.2 5.39-49.84 22.8-4.66 6.42-7.49 13.08-8.16 21 10.11-.56 21.31-8.61 38-8.99 24.21-.54 48.49 16.81 50.67 41.99 1.06 12.14-6.68 16.91-14.58 24.28L1365 974.8l-41 36.12-27 23.57-38 30.88-30 22.95c-5.68 4.25-11.86 6.88-15 13.47 9.82 5.59 20.35 10.16 31 13.86 3.22 1.12 9.88 4.11 13 3.76 4.43-.49 14.34-9.36 18-12.49l39-33.11 19-16.3 27-23.41 61-46.22 33-20.96c7.5-4.28 12.02-8.02 21-8.13h5l22-2.07h8c17.52-2.73 31.72-9.22 39.51-25.93 3.22-6.9 5.88-20.32 6.4-28 .31-4.56-.979-10.25 3.24-13.4 2.44-1.83 7.68-1.74 10.85-2.18l27-3.66c23.07-5.41 41.36-12.92 60-27.76 3.27-2.6 6.75-5 9.68-8 9.09-9.32 22.23-25.95 27.11-38l2.07-7c4.21-14 6.31-27.64 8.58-42 2.52-16.01 3.59-31.78 3.56-48l-1.04-12v-10c-1.28-11.56-4.54-23.98-8.08-35l-4.46-14c-9.52-23.69-23.42-45.81-41.42-64-10.56-10.67-31.41-31.8-45-37l5.94 25v9l3.06 28-4.46 45c-.78 4.35-1.99 9.54-4.82 12.98-9.96 12.17-25.35 11.72-32.29-2.98-5.76-11.29-1.85-31.92 0-44l1.74-14 1.66-9 1.17-29c-.03-20.08-5.46-47.55-27-55m-826 13c-12.96 5.91-18.68 16.95-22.42 30-1.67 5.83-2.5 7.77-2.58 14l-1 19 1.17 25 5.82 48c.17 7.68-1.24 16.21-7.29 21.59-10.81 9.6-27.79 2.06-31.92-10.59-3.34-10.27-3.14-21.39-3.87-32l-1.89-23 1.81-15 .61-11 6.56-31c-9.56 4.05-31.39 23.14-39.09 31.04-27.82 28.56-47.3 65.5-54.3 104.96l-.91 8c-1.85 12.55-2.55 11.12-2.7 25l-.71 19 .71 10c.17 14.43 1.19 13.4 2.84 26 1.7 12.94 5.5 37.51 10.5 49 3.55 8.17 13.52 21.43 19.75 28.01 16.75 17.689 28.31 23.84 50.91 31.34 4.92 1.64 9.88 3.54 15 4.48l22 3.6h6l6 .87c4.28.45 9.94-1.18 13.69 1.63 3.16 2.38 3.14 9.4 3.34 13.07.41 7.26 2.59 19.18 5.06 26 4.62 12.77 18.13 21.94 30.91 25.24l8 1.27c6.52 1.34 14.34 2.41 21 2.49 5.93.07 18.05-.86 23 .64 3.58 1.09 11.28 6.14 15 8.22 13.87 7.74 27.08 16.01 40 25.23l33 23.42 51 43.35 9.91 7.45 11.09 10.52 12 9.59 21 17.24c3.31 2.6 14.67 12.43 18 12.7 3.21.26 9.98-3.31 13-4.77l22-9.42c2.73-1.3 9.33-3.07 8.27-7.17-.95-3.66-10.97-9.49-14.27-11.74l-37-27.87c-36.81-29.75-73.41-59.57-108.17-91.71l-20.46-18.8c-2.57-2.51-6.77-5.97-8.52-8.89-1.83-3.05-2.94-10.42-2.67-13.99 1.71-22.46 24.22-39.74 45.82-40 7.28-.08 13.87-.3 21 1.58 6.9 1.82 14.57 5.75 21 6.42-.31-5.67-1.44-7.89-3.73-13-8.95-19.95-28.811-30.75-50.27-31-16.9-.19-31.84.69-47 9.46l-12.83 8.45-8.34 7.96c-7.48 7.04-15.93 11.01-25.83 13.38-22.11 5.29-41.49-15.69-46.71-35.25-1.64-6.14-1.29-10.78-1.29-17-16.729 5.59-25.36 11.18-44 10.41-34.32-1.42-67.91-32.87-83.65-61.41l-6.65-16c-6.12-14.89-7.34-22.2-8.87-38l-.75-7 .83-8c.47-6.42.94-14.53 4.79-19.98 2.3-3.25 5.23-5.4 8.39-1.78 2.57 2.96 5.59 12.64 7.22 16.76 2.89 7.32 7.17 13.94 12.15 20 9.11 11.06 19.79 17.61 33.54 21.13l10 2.62c2.6.26 5.36-.48 8-.87h8c11.51-2.08 21.68-9.01 29.54-17.3 6.31-6.66 8.63-11.38 12.07-19.58l3.29-8c4.53-15.9 1.82-35.27-2-51l-1.8-8-22.02-51c-4.92-13.17-6.88-27.13-8.25-41l-1.66-11c-.72-7.43.5-11.32.79-18 .25-5.79-.45-6.89 1.04-13zm532 110-30 5.91-29-3.91 4.7 16 2.28 30-.94 9v12l-1.04 17v22c0 21.67-.97 42.55 8 63l12.2-18.92 18.46-25.08c3.69-4.639 13.89-14.73 14.88-20 .96-5.11-3.31-8.33-5.24-15-2.82-9.72-4.28-19.88-4.3-30l1.32-30zm-204 21-20 9.46c-11.889 4.25-19.81 3.54-32 3.54 1.16 10.87 13.651 21.28 23 25.83 11.91 5.78 20.97 5.23 21 21.17v24c-.02 2.26.1 4.87-1.02 6.9-3.25 5.85-13.4 5.72-13.37 10.31.02 3.31 8.5 10.88 10.95 13.79 9.26 10.99 16.1 22.77 23.44 35h2c6.63-12.95 14.28-36.54 16.56-51l1.57-13c.92-6.6 1.86-13.33 1.87-20v-20c-23.41-4.24-23.47-29.65-34-46m443 57c-4.17-.26-6.25.9-10 2.56-12.25 5.43-19.71 14.32-22.72 27.44-2.02 8.85-3.27 12.641-3.28 22v58c-.02 12.41-2.67 15.15-6 26 26.66-1.3 35.96-25.91 36-49 .05-31.69-3.15-55.68 6-87m-723 11c.36 7.4 2.26 8.88 3.58 16 1.91 10.32 3.4 23.54 3.42 34v18l-.96 13c-.2 5.06.55 6.57.87 11 1.22 16.66 5.2 29.92 21.09 38.31 7.28 3.84 11.26 4.3 19 5.69l1-1-5.39-14c-1.8-7.03-1.62-19.52-1.61-27l1-17c.04-25.89 2.69-58.58-25-72.05-4.99-2.43-11.51-4.11-17-4.95m630 54.74c-14.39.55-30.5 6.55-39.47 18.26-6.81 8.9-7.02 19.88-3.09 30 1.05 2.71 4.33 8.8 7.61 9.13 2.75.27 4.06-4.16 5.07-6.13 3.3-6.46 7.12-11.31 12.89-15.76 11.58-8.93 26.47-9.3 38.95-1.87l13.04 10.63c.84-2.95.95-3.94 1-7 .14-10.08.96-19.77-6.22-27.96-7.44-8.47-19.16-9.7-29.78-9.3m-522.088 8.353c-4.791-.129-9.494.144-13.912.777-13.12 1.88-24.16 7.66-28.07 21.13-3.56 11.84-1.63 12.92 0 24 9.05-6.02 11.96-10.291 23.07-14.68 14.33-5.65 31.95-1.63 42.83 8.97 6.55 6.38 7.75 11.73 12.17 18.71 15.889-11.47 20.09-32.22 4-45.67-10.56-8.835-25.716-12.849-40.088-13.237m269.068 91.908v17l-.8 7.999.82 10c.04 3.7-.44 14.04.74 16.91 1.39 3.4 6.35 6.89 9.26 9.09l18 13.28 27 18.27 10 7.01 43 26.24 24 15.05 12 7.08c3.42.93 6.35-1.79 8.83-3.78l18.68-16.57c1.82-2.46 1.42-4.09-.7-6.19l-13.81-8.25-24-14.94c-24.15-14.49-47.65-29.66-70-46.85l-13-9.81-30.91-26.41c-5.75-4.72-12.18-13.1-19.11-15.13m-21.98 2c-7.17 3.06-15.14 12.1-21.28 17.66L1069 928.14c-20.17 15.54-41.6 29.99-63 43.79l-21 13.119-20 12.02c-2.31 1.36-6.71 3.65-6.66 6.76.05 3.57 8.87 10.6 11.7 13.04 2.88 2.49 10.57 10.13 13.96 10.22 3.16.07 10.01-5.04 13-6.84l34-21.86 23-14.77 9-5.08 8-5.8 15-9.72 20-15.2 15-11.58c3.13-2.51 6.79-4.72 8.57-8.46 1.54-3.24 1.42-7.48 1.43-10.99zm226 25c3.22 10.21 10.34 15.37 1.61 25.96a21.4 21.4 0 0 1-4.61 4.189c-5.02 3.37-8.8 2.44-11.49 4.7-2.56 2.16-2.36 5.74-5.9 10.13-10.07 12.49-18.9 2.51-27.61-1.98 0 7.12-.86 14.39 2.32 20.96 5.14 10.6 22.64 18.14 32.64 9.76 5.76-4.82 6.29-9.02 8.04-15.72.76-2.91 1.39-7.36 3.51-9.49 3.82-3.84 13.96-2.66 21.16-10.61 7.44-8.21 7.14-21.94-.85-29.69-4.48-4.35-12.72-7.27-18.82-8.21m230.672 4.391c-2.219-.342-4.567-.157-6.672.258-14.76 6.33-7.32 25.65 7 21.41 10.25-3.04 9.19-14.91 5.57-18.76-1.59-1.695-3.68-2.565-5.898-2.908m-665.642 1.61c-12.05 1.25-26.76 10.57-25.94 24 .29 4.7 1.81 9.38 5.12 12.82 8.34 8.639 18.36 4.93 23.14 10.46 2.87 3.31 2.72 9.29 4.17 13.72 3.36 10.28 10.8 14.58 21.48 13.91 4.32-.28 7.32-1.53 11-3.74 11.24-6.74 15.58-17.55 12-30.17-7.53 3.39-10.7 9.19-20 7.17-3.83-.83-6.16-2.25-8.78-5.21-3.94-4.45-3.55-8.19-5.92-9.97-2.36-1.77-5.34.04-11.3-3.35-1.82-1.04-3.45-2.29-4.97-3.74-9.71-9.5-2.67-16.62 0-25.9M692 916.43c-2.88 1.08-5.49 2.15-7.57 4.57-4.3 5.01-3.12 14.24 2.61 17.56 3.68 2.13 8.99 1.85 12.96.66 7.1-2.11 12.15-11.61 7.26-18.21-3.389-4.58-10.08-5.6-15.26-4.58m437.2 29.36-32.2 24.23c-5.71 4.01-12.79 7.31-16 13.77l19-.55 10-.88 22-.57c-2.37-6.78-11.89-3.08-11.89-13 0-7.93 7.51-7.56 9.09-9.02 3.32-2.55 1.87-11.18 0-13.98m22.8 0c0 2.4-.28 9.88.6 11.69 1.64 3.35 5.66 1.27 8.66 5.46 2.71 3.77 2.35 14.52-9.26 13.85-1.06 6.29 1.58 5.96 7 6 8.55.06 34.34.89 41-1v-2l-32-23.58zm561.16 26.365c-2.25-.395-4.635-.24-7.16.105-18.239 4.52-11.06 30.04 7 26.14 12.339-2.66 13.74-16.34 6.52-23.05-1.99-1.855-4.108-2.8-6.36-3.195m-230.194 8.515c-6.68.045-13.351.895-21.966 2.99-3.56.86-6.67 1.32-10 2.96-6.32 3.12-20.76 15.4-27 20.37-7.139 5.69-20.21 13.81-24 21.8l15 7.73 9 3.82c2.86 1.37 6.84 4.36 10 4.01 3.98-.44 14.56-11.21 18.28-14.27 11.1-9.12 21.27-18.59 36.72-16.42 5.33.75 8.74 1.9 13 5.39 2.46 2.02 6.5 6.17 8.39 8.74 4.02 5.48 5.46 10.31 5.61 17 24.52-1.2 37.699-34.8 20.11-52.1-8.74-8.6-19.69-8.69-31.11-10.18-8.66-1.125-15.352-1.885-22.034-1.84m-692.965 10.12c-7.62.04-8.01.86-15 2.2-9.53 1.82-17.511.83-26.001 7.33-21.66 16.58-10.699 48.96 17 55.47 1.17-6.23 2.18-11.59 5.76-17 2.95-4.44 6.01-7.17 10.24-10.33 17.58-13.16 34.51-2.36 49 9.41 3.32 2.7 14.51 11.95 18 12.57 4.16.74 7.59-2.29 11-4.11 5.81-3.1 18.27-9.77 24-11.54-.52-1.62-.46-2.09-1.59-3.56L859 1012.92c-4.83-3.65-20.64-15.86-25-17.77-12.62-5.54-30.35-4.42-44-4.36m-206 1.53c-4.25 1.27-7.12 2.44-9.43 6.51-4.86 8.57-1.81 22.8 9.43 23.85 10.97 1.02 15.92-6.93 15.15-16.89-.76-9.88-4.34-15.13-15.15-13.47m594.815 16.605c-9.222-1.247-18.94 1.31-22.585 6.966-3.01 4.66-2.99 13.08 0 17.728 2.04 3.19 5.94 5.49 6.23 9.17.35 4.36-5.63 10.14-8.46 13-6.4 6.44-14.88 13.45-22 19.2-4.47 3.61-9.25 6.131-11 11.801 4.21 2.66 13.48 10.99 18 10.45 4.51-.53 14.24-9.831 18-13.03 12.59-10.73 31.24-27.93 37.19-43.42 1.43-3.73 4.87-12.38 4.24-16-1.666-9.566-10.392-14.617-19.615-15.865m48.185 1.055c-3.21-.19-5.92-.34-9 .78-11.2 4.04-11.96 15.451-7.65 25.03 2.51 5.58 7.22 9.39 4.37 16-4.14 9.599-24.26 23.25-32.72 31 3.01 3.82 13.9 11.81 19 11.03 4.21-.65 13.54-10.67 16.91-13.85l20.56-20.3c3.03-3.15 9.56-9.6 11.48-13.16 1.63-3.03 2.88-10.23 3.01-13.72.44-11.209-5.62-20.35-16.96-22.81-2.5-.31-6.36-.19-9 0m-164 1.81c-14.93-.2-28.76 2.821-29 21-.15 11.87.92 15.12 8.84 24l14.5 14.74 8.66 9.22 17 16.04 15.02 14c2.02 1.85 5.58 5.35 8.07 6.28 1.93.71 3.96.65 5.91 0 2.28-.72 16.06-9.68 17.71-11.49 1.34-1.47 1.48-2.12 2.29-3.79l-46.96-33.74c-4.719-4.01-13.5-11.88-14.22-18.26-.71-6.36 7.4-10.82 8.09-22 .64-10.45-5.92-15.86-15.91-16m47 1.46c-3.27.7-9.21 1.81-12 3.22-19.02 9.65-4.48 29.35 4.46 40.32 2.94 3.6 11.44 14.04 15.54 15.16 4.46 1.21 15.04-7.45 16.38-11.41.95-2.82-1.54-4.9-3.25-6.75-2.49-2.69-7.04-7.33-7.6-11-.8-5.27 6.77-11.63 8.21-17 2.73-10.18-14.73-13.44-21.74-12.54m120 8.46c14.12 2.65 7.82 16.64-1 16.53-4.7-.05-9.87-5.69-8.02-10.41 1.52-3.88 5.19-5.6 9.02-6.12m-177 .73c3.89.54 7.93 2.2 9.21 6.37 1.54 5.06-4.74 9.24-9.21 9.07-9.39-.35-12.57-13.66 0-15.44m125 .12c12.25 2.42 6.38 16.3-2 15.87-4.39-.22-11.4-6.15-6.85-12.41 2.29-3.17 5.28-3.38 8.85-3.46m-71 2.01c12.54 2.35 9.37 15.01 0 15.01-9.14 0-11.71-12.82 0-15.01m247 42.23c-2.45.3-5.17 3.13-7 4.71l-14 13.28c-17.97 17.97-35.28 36.32-51.39 56l-13.11 17.09c-1.44 2.07-3.79 5.13-3.25 7.79.8 4.01 10.27 6.6 13.75 7.93l16 6.1 19 5.87c2.46.82 13.78 4.03 15.73 3.44 2.22-.68 3.76-4.3 4.88-6.22l11.17-20 33.56-53c5.01-7.36 11.85-14.24 15.66-22l-30-15.94c-2.62-1.39-8.27-5.38-11-5.05m-422 4.83c-3.47-.98-7.05 1.67-10 3.22l-22 12.24c-2.13 1.17-7.69 4.02-8.72 6.09-1.92 3.88 3.81 8.96 6 11.78l21.21 28.83 24.28 39c2.41 4.22 7.33 14.66 11.44 16.98 4.08 2.31 13.25-1.19 17.79-2.31 15.65-3.87 35.96-12.32 51-18.67-3.04-8.81-13.43-19.73-19.72-27-15.18-17.54-30.86-34.93-48.28-50.28l-15-14c-2.12-1.84-5.34-5.13-8-5.88m705.15 1.388c-1.965-.242-4.015-.013-6.15.412-2.02.77-3.91 1.4-5.49 3-2.85 2.89-3.38 10.71-1.34 14.15 2.31 3.89 9.66 5.67 13.83 4.56 10.68-2.84 11.04-14.61 4.79-19.7-1.795-1.466-3.675-2.18-5.64-2.422M1169 1086.399c-3.33.68-13.48 9.051-14.27 12.321-.9 3.72 4.74 6.5 7.27 8.27l17 10.75 10 6.52 14 7.48 15 8.54 8 3.33 14 7.18c4.08 1.75 14.97 7.53 18.91 6.31 2.6-.8 5.03-4.22 6.67-6.31 2.91-3.71 10.74-13.35 12.42-17-12-2.45-28.61-9.24-40-14.13l-34-15.24-30-17.26c-1.68-.68-3.17-1.13-5-.76m-19 20.95c-4.74-1.04-14.79 7.18-19 9.94-2.83 1.85-11.8 6.881-11.8 10.451 0 2.97 7.45 7.93 9.8 9.62 1.83 1.32 8.31 6.21 10.17 6.43 2.75.33 6.61-2.82 8.83-4.34 7.8-5.35 15.28-11 22-17.66-2.88-3.66-15.61-13.47-20-14.44m-67 1.202c-5.78 1.29-10.75 4.81-16 7.43l-29 12.899-17 6.05c-1.82.62-6.38 1.74-7.64 2.79-3.1 2.58-.17 5.81 1.66 8.07 4.19 5.18 9.64 14.56 16.98 14.14 5.76-.33 10.86-3.67 16-5.99l38-19.58c3.55-2.03 15.62-7.71 13.83-12.6-.95-2.6-11.22-11.62-13.83-12.7-1.83-.77-1.86-.38-3-.51m-404.25 6.162c-3.137-.156-6.375.243-8.71.818-8.31 4.72-9.84 18.02-3.74 23.83 3.82 3.65 12.06 3.559 16.69 1.699 8.27-3.35 10.68-18.06 3.87-23.84-1.935-1.64-4.972-2.35-8.11-2.507m500.25 12.878c-3.4.11-7.34 3.739-10 5.729l-21 15.47c2.32 4.41 6.98 7.27 11 10.13l21 14.53c2.31 1.56 8.45 6.28 11 6.19 4.06-.15 13.79-10.78 17-13.76 2.96-2.76 13.8-10.28 13.8-13.96 0-2.09-2.29-3.16-3.82-4.06l-12.98-7.19-17-9.46c-2.33-1.31-6.32-3.7-9-3.62m-74 3c-3.05.67-9.17 5.15-12 6.97l-19 11.619c-2.17 1.33-8.93 4.9-9.83 6.99-1.56 3.59 4.51 7.9 6.83 9.89l28 24.56 14 11.59c24.72 20.88 50.12 41.65 77 59.65l23 15.02c6.13 3.94 9.54 7.15 17 8.91l-1-15c-.02-11.67-.37-23.42 1.3-35 .73-5.11 4.47-17.21 1.68-21.61-1.31-2.059-6.7-4.81-8.98-6.2l-20-12.14-58-39.14-10-6.92-19.17-14.22c-2.97-2.45-6.66-5.88-10.83-4.97m366 10.2c-6.51 2.15-16.13 3.88-23 5.08-33.979 5.97-46.55 4.848-80 4.918-2.32 0-5.65-.219-7.66 1.021-2.29 1.41-4.2 5.61-5.56 7.98-2.55 4.44-10.47 18.88-11.78 23 9.17 3.35 26.92 4.01 37 4l12-1.04h10c14.31-1.66 31.76-8.77 44-16.21 8.41-5.12 14.25-11.24 20.42-18.75 2.65-3.22 5.61-5.64 4.58-10m-657 9c-.25 5.42 2.67 8.199 6.18 12.039 5.51 6.01 12.73 12.56 19.82 16.62 13.21 7.57 19.52 9.21 34 12.15 7.99 1.62 6.01 2.18 15 2.19h23c6.78-.08 24.68-2.07 31-4-3.44-9.85-6.94-14.44-12.5-23-1.6-2.48-4.25-7.6-6.71-9.07-2.41-1.23-5.22-.34-7.79 0l-16 1.03h-18l-8-1.02h-16l-10-1.94h-8c-8.78-1.01-17.48-2.74-26-5m720 6.998c-21.09 41.68-62.5 80.451-108 93.441-12.07 3.45-16.83 3.06-28 4.88-6.19 1.01-4.12 1.64-12 1.68h-18c-10.34-.03-8.48-.76-17-1.82l-13-1.37c-6.26-1.02-3.76-1.73-12-1.81 0 18.46 1.87 35.13 6.52 53 1.11 4.25 5.18 17.69 8.04 20.42 3.12 2.98 12.22 3.57 16.44 3.58h28c8.34-.01 13.02-1.39 21-2.57 28.57-4.25 62.46-18.51 84.96-36.66 4.31-3.48 13-14.91 16.67-19.77 15.63-20.73 26.67-43.86 29.2-70l.99-14-1.74-18v-11zm-301 3.972c-7.95-2.62-15.78 7.97-20.91 12.85-2.01 1.91-6.31 5.169-6.35 8.129-.05 3.84 9.13 8.84 12.26 10.45l10 4.91 32 17.4c31 13.45 66.15 22.48 100 23.3l9 .62c11.13-.56 22.22-2.76 33-5.4 15.42-3.78 28.28-11.6 39.05-23.27 4.47-4.84 9.18-10.241 9.95-16.96l-29 6.68-10.09.7c-7.13 1.01-13.58 2.61-20.91 2.62h-16c-19.54-.03-60.02-9.47-79-15.74l-46-18.39zm-490 2.028-1.09 18-.83 8.001.96 8v10l6.4 28c4.72 15.27 15.44 31.54 25.28 44 3.92 4.97 8.5 11.62 13.29 15.67 5.16 4.36 24.26 14.57 30.99 17.63 22.6 10.3 55.061 19.66 80 19.7h19c4.469-.01 19.46-2.12 24-3.12 2.54-.55 6.57-.95 8.5-2.62 2.95-2.52 6.74-17.02 7.59-21.26l2.45-10 .74-8 2.04-13c.51-4.84-.99-9.36.68-22l-23 4.72c-8.68 1.78-9.42.75-16 1.45-7.01.75-5.07 1.81-15 1.83h-15c-6.4-.01-12.67-.99-19-1.87-30-4.17-58.74-15.51-82-35.26-14.07-11.95-23.39-21.87-34.09-36.87-3.87-5.42-11.26-20.08-15.91-23m313 .101c-2.94-.63-5.47 1.06-8 2.3l-16 7.43c-10.96 4.9-44.9 17.73-56 20.51l-14 3.03-15 4.02-21 2.9-7 1.2h-7l-13 1.51-16-1.04h-8l-11-1.79-8-.63-22-4.54c1.1 7.89 7.69 13.98 13.13 19.37 15 14.89 28.52 19.17 48.87 21.91 11.97 1.61 7.14 1.58 20 1.92h9l15-2.27h10l26-5.84 8-1.67c20.95-5.37 40.95-14.09 60-24.2l24-14c5.26-3.03 10.08-4.6 13-10.22l-15-12.93c-2.34-2.12-6.94-6.31-10-6.97m34 29.2c-3.65-1-7.08 1.83-10 3.65l-21 12.78c-3.24 1.91-7.63 4.31-8.48 8.31-.8 3.76 2.58 15.6 3.29 19.96 3.22 19.78 3.19 25.38 3.19 45 8.74-.82 23.71-12.08 31-17.53l33-24.21c2.85-2.32 9.64-6.96 10.83-10.23 1.01-2.76-1.05-4.41-2.89-6.11l-14.94-12.79c-4.13-3.56-19.94-17.72-24-18.83m156 23.7c-4.79 19-8.03 38.33-8 58l.91 12c.69 10.06 1.61 20.28 4.6 30l8.46 24 19.28 32c3.59 6.84 10.09 15.32 10.54 23 .45 7.63-8.43 17.921-10.79 26 6.86-1.289 22.76-5.96 29-3.48 3.73 1.48 6.53 5.56 9.17 8.48 3.66 4.05 9.39 9.85 13.83 12.91 23.12 15.96 20.53 15.95 40 34l10.27 9.09c7.32 7.23 14.94 12.52 14.22 24-.94 14.94 4.86 22.56 12.31 35l15.71 27 16.24 27.85c4.06 4.54 7.93 2.8 13.25 2.2 12.22-1.39 20.65-2.65 24-16.05-4.79.85-13.67 4.62-18 2.74-5.21-2.28-10.33-12.77-13.42-17.74l-29.27-47c-1.08-1.93-4.11-6.98-4.02-8.98.13-2.83 2.96-4.85 5.67-3.85 2.3.85 4.17 3.84 5.42 5.83l9.02 15 20.32 34c3.39 5.84 5.62 11.45 13.28 10.83l21-4.03c4.17-.88 8.58-1.45 11.44-5.01 2.26-2.83 2.89-9.12 3.56-12.79l-24.41 1.77c-4.05-1.37-6.28-6.38-8.47-9.73l-17.64-26.08-12.61-18.96c-1.68-2.91-2.74-5.97 1.2-7.72 3.46-1.53 6.06 1.31 8.01 3.76l13.04 17.96 15.6 22c1.98 2.8 4.86 7.27 8.29 8.23 2.87.8 12.84-1.37 15.99-2.24 8.81-2.45 16.82-6.45 22.39-13.99 7.1-9.62 5.84-26.74.61-37-5.41 6.65-7.77 22.6-21 22.72-7.89.08-15.89-10.92-20.63-16.44l-36.64-42.86c-4.3-5.02-14.47-15.77-16.09-21.42-2.79-9.69 6.59-16.75 7.36-28-5.84.05-8.57.32-14 2.79-3.02 1.37-7.69 4.52-11 3.66-2.2-.57-7.02-4.56-9-6.11l-18-14.83-25.67-19.55c-5.3-6.099-14.89-25.93-18.33-33.96-7.31-17.06-8.85-19.39-13.23-38l-2.48-11-.57-9-1.72-15c-.08-7.21-.03-7.92 1.01-15 .36-1.83 1.07-4.79 0-6.41-1.36-1.82-14.9-4.73-18.01-5.8l-30-9.75zm-205 1c-5.32 1.55-9.94 4.62-15 6.83l-24 8.65-20 5.95c-2.56.77-7.62 1.74-9.71 3.13-3.02 2-2.29 6.27-2.29 9.44l.82 14c-.91 12.78-2.12 25.56-5.4 38-6.75 25.6-20.84 51-35.28 73-9.15 13.93-10.59 16.41-24.14 26.63-2.31 1.74-8.18 6.46-10.72 7.03-2.99.68-7.51-2.53-10.28-3.76-5.94-2.66-8.66-2.88-15-2.9 2.15 6.46 9.06 21.22 7.5 27-1.52 5.66-11.91 16.1-16.18 20.91l-38.32 42.75c-5.34 5.98-13.08 16.69-22 15.63-11.7-1.39-14.06-14.98-19-23.29-4.29 7.09-4.54 10.03-5.21 18-.1 3.25-.63 4.6 0 8 1.95 14.35 16.03 23.75 29.21 26.6 3.73.81 9.2 2.91 12.82 2.14 3.66-.78 7.11-5.89 9.3-8.74l17.25-23 12.93-16.88c2.04-2.06 4.63-3.9 7.71-2.16 3.23 2.04 1.78 5.23 0 7.87l-12.38 18.17-18.75 26c-2.21 3-5.2 8.2-8.89 9.23-3.65 1.02-19.18-2.58-23.99-3.23.53 3.98 1.31 11.59 3.88 14.58 3.28 3.84 16.98 5.83 22.12 6.93 3.99.85 11.88 3.72 15.53 1.5 2.65-1.62 8.22-10.96 10.15-14.01l19.71-31c2.69-4.37 7.11-12.34 10.28-15.89 1.98-2.23 5.03-4.71 7.97-2.33 2.88 2.33.54 5.81-.85 8.22l-11.39 18-24.28 37c-2.85 4.18-6.18 11.06-11.13 12.74-4.4 1.5-12.54-2.25-16.99-3.74.36 3.91 1.42 8.67 4.47 11.44 3.24 2.94 18.79 6.02 23.53 6.39 2.04.16 4.06.15 5.91-.85 4.66-2.53 12.35-17.74 15.49-22.98l27.72-45.99 3.69-6.29c3.6-8.14-1.4-19.23 6.41-28.72 12.54-15.23 32.5-26.23 42.32-36.43 4.27-4.44 12.12-14.4 15.8-19.57 3.04-4.29 6.53-10.42 10.84-13.52 6.81-4.88 9.08 1.54 20.82 3.6 2.11.37 6.44 1.46 7.89-.68 1.36-2.02-.6-6.41-1.46-8.4-5.92-13.78-11.84-13.06-9.38-20l15.55-27c5.89-9.83 16.45-30.49 20.82-41 15.17-36.5 13.62-75.52 3.58-113m124.504 53.535c-1.706-.025-3.414.836-4.484 2.656-1.18 1.94-1.06 5.519-1.01 7.809.18 7.83 1.94 15.35 3.27 23 .35 1.97 1.64 6.31 1.39 7.94-.61 3.87-5.45 4.71-8.57 3.46-3.46-1.39-3.98-4.62-5.91-7.31-2.35-3.26-8.03-6.82-12.19-6.49-3.58.28-8.59 3.73-10.65 6.61-2.31 3.22-2.77 6.29-7.37 6.97-2.7.4-6.37-.05-7.01-3.25-.32-1.6 1.36-6.88 1.77-8.93 1.51-7.46 3.16-13.16 3.26-21 .06-5.37 1.72-12.74-5.95-11.13-5.2 3.22-4.6 8.49-5.12 14.13-1.01 10.83-5.46 20.53-7.72 31-.92 4.26-2.18 9.83.8 13.58 4.25 5.36 9.76 1.03 14.99 1.64 4.18.49 9.42 3.43 14.52-1.52 3.37-3.26 4.13-6.93 6.24-10.62.69-1.21 1.56-2.76 3.23-2.46 3.56.64 3.48 8.37 8.27 13.15 6.39 6.38 12.35.73 16.74.94 3.56.06 6.86 3.47 11.77 0 4.04-2.74 3.47-8.44 2.79-12.71l-2.97-11c-1.73-6.25-3.51-13.58-4.3-20-.44-3.53.22-11.27-1.31-13.81-1.066-1.72-2.77-2.63-4.476-2.655m65.56 66.997a15.1 15.1 0 0 0-5.065.107c-5.21 1.96-7.499 3.572-10.529 8.362-1.24 1.95-3.22 6.819-5.64 7.229-2.44.4-4-2.56-5.42-4.01-2.83-2.88-6.62-4.1-10.41-2.2-3.59 1.8-6.93 6.61-9.01 9.98-1.13 1.84-2.61 5.02-5.03 5.38-3.31.49-5.89-5.12-7.66-7.34-3.58-4.5-8.36-7.61-14.3-6.55-5.01.9-10.47 4.49-13.51 8.53-1.78 2.37-3.99 8.78-7.35 8.78-2.81 0-4.9-5.65-6.18-7.76-2.62-4.32-7.73-8.93-12.96-9.48-5.9-.62-10.6 3.9-13.54 8.44-1.3 2.02-3.23 6.62-6.32 5.66-4.81-1.48-6-14.79-12.19-17.05-7.34-2.67-9.68 7.2-13.89 7.19-3.07 0-5.03-5.55-6.41-7.78-2.63-4.25-6.51-6.91-11.65-6.82-4.75.08-11.43 4.47-14.54 7.9-4.74 5.25-8.81 14.48-12.9 20.9-4.11 6.47-15.84 22.91-16.67 30-.55 4.69 2.89 8.14 4.94 12 2.42 4.57 5.54 12.871 5.99 18 1.1 12.36-13.77 10.93-21.82 8.7-2.9-.8-5.9-2.77-8.82-1-2.16 1.31-5.64 7-7.33 9.3l-13.93 18c-5.11 7.35-14.37 37.76-17.74 48l-11.09 30-4.51 14c-3.6 10.33-7.56 20.96-7.58 32v13c.14 12.07 3.56 35.06 8.29 46 3.11 7.18 6.72 13.09 14.71 15.4 7.17 2.08 12.54-.52 19-3.45 3.38-1.53 7.11-4.94 10.5-1.62 2.33 2.28 6.47 15.77 12.71 21.04 7.51 6.34 16.89 5.27 21.09 10.76 3.78 4.95 5.441 25.16 18.7 29.52 8.46 2.79 17.37-3.03 23.91-7.84 2.46-1.81 7.72-7.92 10.79-6.56 2.85 1.26 4.3 13.52 4.91 16.75 2.02 10.699 3.85 19.08 8.56 29 1.74 3.67 4.51 8.73 8.12 10.83 1.79 1.03 5.6 1.51 7.71 1.71 18.14 1.69 28.25-17.44 34.44-31.54l6.6-14.98c.79-1.54 1.92-3.82 3.96-3.82 2.28 0 3.69 3.07 4.5 4.8l6.28 15c7.73 15.85 22.5 38.3 43.22 32.06 5.17-1.56 7.32-4.88 10.36-9.06 7.83-10.76 8.79-20.71 11.92-33 .97-3.79 2.05-13.44 5-15.39 4.19-2.77 10.82 5.72 13.72 8.18 7.77 6.58 18.24 10.18 28 5.99 12.78-5.5 14.81-23.13 19.42-28.72 5.3-6.44 12.12-2.38 21.58-9.59 5.48-4.18 9.71-10.15 12.38-16.47 1.44-3.39 3.31-10.29 6.81-11.85 3.1-1.39 5.69 1.74 14.81 1.85 3.86.04 8.41.28 12-1.23 15.53-6.5 19-33.16 21-47.77l1.09-15 .87-8c.46-11.95-4.61-24-8.68-35l-20.57-53-9.27-26c-1.47-4.16-1.74-8.36-4.83-11.79-2.78-3.09-13.61-8.51-24.03-19.38-2.59-2.7-8.19-9.75-11.67-10.43-4.06-.79-14.76 1.93-18.91 3.19-3.18.96-6.66 2.7-9.82.86-1.569-.92-3.3-2.99-4.12-4.62-5.41-10.79 10.12-21.61 8.7-31.83-.51-3.72-6.17-12.06-8.29-16-5.22-9.73-12.4-25-19.77-32.91-3.532-3.788-7.774-6.833-12.635-7.558M1207 1432.791c6.7 4.27 7.14 10.77 8.6 18l7.51 35 6.72 28 7.29 38 9.38 41.999 8.97 36c1.49 6.03 4.45 15.25 4.53 21 .07 5.86-.84 19.06-3.93 23.89-6.54 10.22-20.58 2.09-25.54-5.31-4.24-6.32-3.98-10.66-4.81-17.58l-3-33-4.55-43-1.34-19-1.66-10-1.49-15-1.5-7-1.35-18-1.99-16-3.84-39c-.01-8.41-1.95-10.85 2-19m-155.09 9.63c5.6 0 1.42 14.36.74 17.37l-5.01 24.999-3.22 11-3.92 19-2.24 11-9 40-8.76 38-8.5 36c-4.4-.26-5.08-.49-8.96-2.68-7.97-4.49-7-11.09-7.53-19.32-.83-13.18 8.46-34.78 12.52-48l9.05-31 4.49-18 7.65-21 6.28-18 9.92-30c1.06-2.81 2.79-9.37 6.49-9.37m123.09.371c3.15 3.94 2.98 7.15 3.04 12v16l.96 10 2 33 1 28 2 33 1 13 2.17 35 2.83 27 1 17v11c-.03 13.15-7.31 15.2-11.3 10.69-2.84-3.21-2.69-8.68-2.7-12.69v-39l-1-17v-29l-1-15v-81l-1-14v-22c0-4.71-.69-11.75 1-16m-90.78 1.74c4.89.24 3.82 5.47 3.78 9.26l-3.58 29-.63 9-1.77 7v8l-3.19 28-2.83 16v9l-3 28-2.83 27-1.34 19-1.66 14c-.89 9.32.55 15.47-7.22 22.89-2.93 2.81-4.92 3.84-8.95 4.07-16.8.95-15.16-15.95-15-27.96.08-5.76 3.27-15.99 4.85-22l6.67-28 3.76-18 7.44-26 7.09-33 5.38-25 6.15-29 1.34-8c.92-4.02 2.16-10.91 5.54-13.26m29.78.26h3v25l-1 16v59l-.92 13 .87 11v14l-.95 12v62c-.02 10.03-1.51 8.6-1.88 14-.36 5.14 1.5 7.11-.6 13-2.2 6.17-7.32 7.51-12.41 3.43-5.42-4.35-4.07-9.49-3.24-15.43l1.83-10 1.3-22 2-30 1.08-15v-12l1.92-16 1-24 2-21 1.18-25 1.73-9zm133.16 1.72c5.02.27 5.45 5.44 6.9 9.28l9.62 28 6.84 22 20.25 63 4.9 14 3.79 12 4.95 12c2.61 9.31 1.75 20.93-1.42 30-1.5 4.26-3.3 9.76-8.99 8.53-5.53-1.19-6.85-5.83-8.03-10.53l-7.09-27-18.55-76-6.01-31-1.36-10-5.8-33c-.79-4.12-3.51-8.28 0-11.28m-234.16 7.28h2c-.18 7.4-3.13 14.01-5.23 21l-8.75 29-6.63 22-3.07 8-5.41 20c-4.27 12.99-9.89 27.2-9.91 41v23c-.01 2.56.19 5.64-1.02 7.96-2.65 5.05-13.08 11.99-18.81 8.73-7.59-4.32-8.26-14.04-8.17-21.69.16-13.59 5.1-26.74 10.43-39l10.43-24 10.31-20 4.12-12 12.2-25zm272 1c5.49.06 5.26 3.6 7.36 8l12.24 27 10.3 21 4.56 11 6.6 13 11.11 25c7.07 15.76 13.38 27.19 14.65 45 .4 5.7-1.85 16.59-6.04 20.66-4.57 4.44-12.94 5.31-16.72-.87-2.38-4.21-.09-15.5 0-20.79v-6c-.21-11.82-10.13-38.56-14.04-51l-6.59-20-9.94-33zm297.05 76.265c-2.293-.186-4.52 1.903-6.374 6.895l10.842 4.297-1.798-4.771 4.11.338c-2.126-4.11-4.487-6.572-6.78-6.759m1.859 1.487c-.558 3.203-.443 3.042-3.3 4.597.558-3.203.444-3.043 3.3-4.597m-11.03 6.882-3.746 6.24c-2.965 4.339-5.751 4.9-6.646 10.671 5.846-2.167 4.924-1.054 11.503 2.161-2.64-5.89-4.51-5.055-3.921-11.517l9.03 5.61 2.485-9.53-5.27 4.921 1.161-5.259-3.622 2.624 1.161-5.259zm-13.353 17.398 3.934 5.433-8.218-.674c2.29 4.741 4.333 6.138 9.354 7.582l-2.784-4.61 7.232.838c-.933-5.36-4.584-7.161-9.518-8.57m-7.582 9.354c-4.39 7.442-2.263 6.575 4.246 13.49l1.973-.324 2.486-9.53-5.271 4.92 1.162-5.257-4.609 2.785zm-7.582 9.356c-.773 1.77-1.682 3.266-1.507 5.315.436 5.36 8.016 7.396 9.778 2.212.546-1.793-.162-3.085-.774-4.707l-1.48 2.332c-5.091 6.695-3.79-2.275-6.017-5.152m-12.029 13.127 2.947 5.595-8.217-.675 8.53 8.73-1.962-5.756 8.22.674c-2.276-4.835-4.575-6.676-9.518-8.568m-6.87 10.438c-.44 0-.905.044-1.395.123-5.703 4.82 1.449 10.84 5.297 9.223 3.874-1.635 2.71-9.416-3.902-9.346m-2.199 2.2c4.295.601 4.825 1.173 6.895 4.947-4.294-.6-4.825-1.173-6.895-4.947m-7.406 4.26-8.244 11.49c6.486-.864 5.903 1.33 11.664 3.148l-5.406-8.23 1.485-3.286 9.03 5.609c-1.84-4.846-3.495-7.086-8.529-8.73m-9.933 13.676c-1.215-.01-2.512.23-3.907.762l5.732 10.205c2.748-3.32 3.003-4.05 7.245-5.245-2.53-3.415-5.426-5.693-9.07-5.722m-4.569 2.897c-4.189 2.382-6.175 3.682-7.745 8.369l4.771-1.799c2.01 3.287 2.263 3.773 5.908 5.11-3.157-6.808-3.24-4.17-2.934-11.68m-9.718 8.693-1.974.325 6.556 9.056c.631-4.421-1.78-6.275-4.582-9.381m-5.569 6.28c-1.517.105-3.242.773-5.07 2.24-1.71 1.376-1.775 1.904-2.54 3.783 4.609.478 5.537.263 6.895 4.945 9.936-1.321 7.287-11.424.715-10.969m-1.027 2.913 5.096.174-1.324 4.272zm-9.542 3.596c-4.863 6.11-3.679 6.535 2.272 13.815l1.973-.325 3.636-8.706-5.272 4.92 1.163-5.257-1.15-.824-3.622 2.622zm-6.92 7.219-1.974.325.149 7.07c-3.447-1.552-3.558-1.98-7.232-.838l5.57 9.218 2.799-1.474-1.636-3.783 5.258 1.161-1.798-4.77 6.407 1.984zm-19.923 14.426c2.301 4.07 4.032 7.018 8.53 8.73-2.046-4.366-3.467-7.891-8.53-8.73m-29.657.534.145.325.215-.19zm28.008 1.765-7.407 4.258c2.301 4.07 4.032 7.018 8.53 8.73l-.473-9.042-2.798 1.474zm-11.691 9.018 4.583 9.38-9.192-6.596c.643 1.75 1.062 3.129 2.235 4.659 6.072 7.889 12.728.359 7.225-5.06-1.62-1.598-2.826-1.774-4.851-2.383m-8.231 5.406c-2.034 1.004-7.517 5.322-3.244 7.456 1.398.49 4.799-.526 6.326-1.041-2.376 3.238-2.715 3.031-6.555 3.278 7.733 8.569 13.296-6.596 2.311-4.434zm-18.816 10.591c-1.398.074-2.929.42-4.576 1.102-10.902 8.583-.098 21.035 8.715 16.15 8.908-4.933 5.645-17.771-4.14-17.252m.653 2.066c8.09.351 9.084 10.965 2.231 13.83-7.205 3.02-15.606-7.019-6.13-13.3 1.443-.421 2.743-.58 3.899-.53m-1.16 2.651c-2.585-.307-4.267 2.747-3.99 4.753.52 3.715 7.834 7.701 9.137-1.503-1.19.896-2.848 2.404-4.372 2.624-2.13.3-4.309-3.03 2.073-4.283-1.023-1.013-1.987-1.488-2.848-1.591m-44.691 6.002c-.013.02-.06.09-.076.117h.085l.029-.075-.038-.047zm-367.598 96.086c-1.924-.043-4.067.142-6.475.414H981l-10 1.931c-13.26 1.29-31.82 5.34-44 10.64-5.26 2.28-12.5 6.01-16.01 10.6-4.37 5.73-6.9 18.64-6.99 25.83-.03 3.12-.16 7.01.61 10 3.01 11.69 16.07 20.46 26.39 25.29l48 18.62c6.67 2.49 17.71 6.98 22.95 11.56 2.84 2.48 5.53 5.66 3.36 9.51-4.25 7.57-19.37 11.11-27.31 12.9-23.18 5.23-48.86-.97-58.69-24.88-3.26-7.95-3.31-17.53-3.31-26-5.68 5.16-3.3 7.46-4.21 14-.9 6.48-1.76 3.28-1.79 13l-2-10c-1.27 3.19-1.95 11.4-1.76 15-.28 3.63-.42 10.69 0 14 3.84 18.03 21.2 36.8 38.76 42.02 10.48 3.12 17.8 1.51 28 1.02 18.02-.87 34.94-6.78 44.74-23.04 5.86-9.72 8.41-23.77 8.26-35-.26-19.69-15.84-36.35-32-45.67-11.39-6.57-23.58-11.95-36-16.25l-20-7.08v-2c16.5-6.35 30.84-8.98 48-12.2l19.72-2.82c3.33-2.09 4.37-9.34 4.1-12.98-.15-1.99-.98-6.16-1.68-8-3.09-8.093-6.894-10.285-12.666-10.415m90.2 5.266c-5.622.036-11.134.288-14.674 1.148 2.89 16.15 2.03 53.88 2 72l-1 17.001v13l-.91 10-1.09 24-1 13c-.1 9.17-.82 14.05-2 23l5-6 5 3c4.7-5.35 5.56-3.71 8.37-6.51l7.72-12.36c1.51-2.19 3.7-3.77 4.77-6.24l2.41-17.89c2.14-13.87 4.73-27.95 4.73-42h4c.62 5.87 8.85 24.19 11.6 31l9.27 22 6.14 16.89c4.55 6.96 18.36 7.11 22.86 0l7.18-18.89 14.53-42c1.82-5.73 4.45-17.89 9.42-21 .21 9.76 3.85 27.08 5.99 37 5.26 24.48 9.08 41.581 19.01 65 4.35-1.17 5.21-1.45 6-6 5.5-1.97 4.29-6.19 6.01-10.96 1.39-3.84 3.94-6.06 4.73-11.04.71-4.49-.76-6.95-1.42-11l-1.3-15-1.98-13v-10l-2.13-30-.91-12v-34c-.01-4.95-.21-13.86-3.57-17.66-5.02-5.68-19.46-5.03-26.43-3.72-2.47.46-6.59 1.4-8.41 3.2l-5.51 12.18-15.08 33-19 47h-2l-17.17-63c-1.57-6.03-6.19-24.73-10.17-28.39-4.67-4.29-9.71-4.6-15.66-4.61-3.975-.01-9.705-.185-15.327-.149M1353 1806.96c-9.77-.95-19.8.97-29 4.1-28.5 9.7-48.05 34.69-54.18 63.73l-1.19 10c-1.66 13.97-2.67 12.45 0 27l1.66 12c5.88 22.03 21.92 41.48 44.71 46.96 3.45.83 15.86 3 19 2.83 35.65-1.89 60.81-26.49 59.99-62.79-.16-6.89-.53-16.35-5.99-21-1.99 23.64-32.18 46.51-55 47.91-17.63 1.08-42.42-14.27-46.47-31.91-2.68-11.66 2.43-26.52 9.14-36 9.39-13.28 22.47-23.6 39.33-23.99 5.4-.12 10.86.55 16 2.29 3.57 1.2 7.12 3.65 10.7 1.09 1.86-1.34 3.69-4.36 4.75-6.39 3.36-6.44 7.83-21.35 3.7-27.96-3.69-5.89-10.75-7.25-17.15-7.87m-209 214.83c-1.33 4.56-5.33 17.68-9.21 19.99-3.8 2.23-16.25.61-20.79 0l15.68 14.1-5.68 19.91c3.99-2.29 15.07-11.21 19-10.73 2.96.35 13.22 8.56 17 10.73-.63-4.46-4.79-16.1-4.1-18.91 1.01-4.12 13.24-10.73 17.1-13.09l-20.7-2.02zm547 7.01c-3.09-.07-4.95.02-8 .52-8.52 2.76-11.7 11.73-5.86 18.71 3.11 3.72 6.77 4.42 10.86 6.23 2.4 1.05 6.85 3.29 6.38 6.5-.15 1.03-.84 1.91-1.58 2.58-4.97 4.56-10.37-1.79-13.8-2.32-2.86-.44-6.41 2.43-5.51 5.47.7 2.37 5.34 5.01 7.51 5.94 8.82 3.77 23.31.76 23.96-10.64.45-7.95-1.73-10.55-8.96-13.55-3.03-1.25-9.61-3.02-10.66-6.5-.74-2.43 1.61-3.82 3.68-4.05 4.1-.47 7.26 3.34 10.67 1.8 3.52-1.6 3.91-5.24 1.07-7.71-2.8-2.43-6.22-2.89-9.76-2.98m-904 .089c-23.9-1.16-32.3 32.561-11 42.921 4.01 1.95 6.64 2.08 11 1.96 5.19-.14 7.23-1.33 12-2.98l-1.26-2.98c-4.3-7.34-7.74-2.1-12.74-2.76-3.55-.47-7.24-3.45-9.23-6.3-6.03-8.63.43-18.82 8.23-20.53 3.89-.85 6.68.9 10 2.57l5-8c-4.07-2.23-7.27-3.671-12-3.901m728.72.094c-4.355.044-8.61 1.291-12.68 4.416-14.02 10.77-10.78 33.4 5.96 39.42 4.58 1.65 19 1.9 21.4-3.3.41-.89 3.39-16.559-5.26-14.399-5.02 1.26-1.79 12.83-11.14 9.62-1.01-.35-2.12-.99-3-1.6-1.29-.9-2.7-2.17-3.7-3.39-5.9-7.18-2.31-18.86 6.7-21.45 4.19-1.2 7.4.68 11 2.49l4-9c-4.47-1.69-8.925-2.85-13.28-2.807m-168.698.17c-3.434-.86-7.042-.938-11.022.057-6.92 1.72-10.86 8.92-7.91 15.56 2.15 4.88 6.35 6.72 10.91 8.73 2.44 1.07 6.78 2.77 7.83 5.41 1.24 3.11-1.92 5.9-4.83 6.06-4.32.25-8.19-4.92-12-3.86-1.93.54-3.57 2.38-5 3.68 5.27 7.17 12.13 10.14 21 8.79 7.28-1.11 14.32-7.91 12.51-15.79-1.47-6.42-6.97-8.6-12.51-10.6-2.6-.94-7.72-2.87-7.66-6.31.1-6.49 11.18-.91 12.57-.9 3.43.05 4.96-3.57 6.09-6.19-3.285-2.134-6.545-3.777-9.978-4.637m-520.022.078c-4.59.89-8.23 1.81-11.91 4.95-10.379 8.84-9.6 26.81.95 35.2 5.12 4.07 12.63 5.2 18.96 4.08 16.13-2.83 22.23-22.97 13.2-35.65-4.88-6.85-13.1-9.55-21.2-8.58m464 0c-5.58 1.08-9.4 2.29-13.32 6.74-12.329 14.04-4.2 37.27 15.32 37.8 4.19.12 7.15.08 11-1.81 22.959-11.27 12.9-45.82-13-42.73m-672 .56 12.13 34c1.82 4.55 2.57 10.58 8.86 9.84 4.84-.58 6.03-5.97 7.56-9.84l12.45-34h-11l-7.93 24.889-3.07 3.11-6.21-20-3.35-6.98zm57 0-16 43.999h10c2.85-8.2 4.88-8.14 13-8 1.88.04 4.07-.01 5.73 1.02 2.81 1.75 2.59 5.03 5.54 6.38 1.76.81 6.63.6 8.73.6l-11.57-30-5.94-12.98zm39 0v43.999h9v-27c7.39 4.26 13.09 22.5 18.53 26.01 1.32.85 2.95.96 4.48.95 6.16-.02 5.95-2.78 5.99-7.96v-36h-10v25.001l-17.38-23.981zm151 0v25.999c.02 4.67.12 9.07 3.42 12.63 6.37 7.34 23 7.49 29.11 0 3.219-4.18 3.44-7.74 3.47-12.63v-26h-10.11v27c-.8 3.75-3.78 7.801-7.89 8.041-4.31.25-7.65-4.29-8.79-8.04v-27zm46 0 12.68 33c1.45 3.93 2.58 10.13 7.37 10.85 6.92 1.05 7.46-4.74 9.45-9.85l12.5-34h-11l-5.49 18c-1.47 4.69-1.05 7.33-5.51 10l-5.88-19-3.82-8.01zm53 0v34.999l1.02 7.4 6.98 1.6h24v-9c-4.09 0-17.8 1.01-20.4-1.6-1.81-1.8-1.57-5.04-1.6-7.4h16v-8c-4.8 1.17-17.77 3-15.67-5.9 1.47-6.2 16.04-4.23 20.67-3.1v-9zm45 0v43.999h10.02v-9.999c.4-4.15 2.71-7.13 6.64-3.67 3.29 2.91 5.11 10.39 8.72 12.65 2.2 1.37 6.99 1.019 9.62 1.019-1.28-6.4-6.11-13.1-6.51-15.7-.43-2.78 2.21-4.36 3.65-6.47 1.52-2.24 2.52-5.11 2.59-7.83.16-5.67-4.3-11.85-9.73-13.49zm228 0v43.999h28v-9c-3.27 0-13.33.55-15.69-1.02-2.36-1.58-2.26-4.46-2.31-6.98v-27zm179 0-9.3.99-5.48 12.01-11.22 30.999c2.43 0 6.55.3 8.59-1.02 4.39-2.84 1.33-6.98 12.41-6.98 10.93 0 7.71 4.03 12.39 6.98 2.09 1.32 6.14 1.02 8.61 1.02zm28 0v43.999h9v-27c5.58 2.91 10.51 13.4 13.77 18.99 1.43 2.46 2.93 5.69 5.56 7.08 2.37 1.24 6.94.93 9.67.93v-44h-10v25.001l-11.96-17.411-5.37-6.66zm100 0c1.87 7.69 1 34.379 1 43.999h25l5.4-1.02 1.6-7.98c-4.09 0-17.8 1.01-20.4-1.6-1.81-1.8-1.57-5.04-1.6-7.4h16v-7.8c-3.23.58-9.77 1.55-12.85 0-3.84-1.47-3.85-7.169-.84-9.179 2.5-1.66 15.06-1.021 18.69-1.021v-8zm45 0v43.999h19l7.98-1.6 1.02-7.4c-3.88 0-14.75.86-17.4-1.74-1.81-1.77-1.58-4.92-1.6-7.26v-26zm40 0v43.999h32v-9c-3.93 0-17.08.63-19.85-1.02-3.11-1.85-3.63-5.79 0-7.38 2.06-.91 11.07-.6 13.85-.6v-8c-4.33.78-19.17 3.13-16.34-5.94 1.88-6.06 15.61-4.21 20.34-3.06l1-9zm-602.895 7.182c1.622.137 3.19.622 4.464 1.667 3.25 2.67 3.212 9.07-1.678 11.3-10.95 4.98-12.341-8.53-7.581-12.55 1.495-.345 3.172-.555 4.795-.417M827 2038.21c19.27-2.63 20.39 23.82 5 26.98-13.8 2.84-21.16-21.17-5-26.98m464 .01c19.12-2.73 20.75 23.74 5 26.97-7.56 1.56-14.47-6.26-14.61-13.4-.12-6.05 4.26-11.44 9.61-13.57m-611 4.57h3l4 15h-11zm731 0h2l4 15h-10z" style="fill:#000;fill-opacity:1"/></svg>